<?xml version="1.0" encoding="UTF-8"?>
<svg version="1.1" xmlns="http://www.w3.org/2000/svg" width="640" height="320">
<path d="M0 0 C211.2 0 422.4 0 640 0 C640 105.6 640 211.2 640 320 C428.8 320 217.6 320 0 320 C0 214.4 0 108.8 0 0 Z " fill="#252229" transform="translate(0,0)"/>
<path d="M0 0 C5.82758284 4.96748778 10.29456762 10.37477543 14.28125 16.8984375 C14.88066406 17.86523438 14.88066406 17.86523438 15.4921875 18.8515625 C20.71383371 28.19556097 21.49327994 38.42298043 21.28125 48.8984375 C20.66644775 48.91302002 20.05164551 48.92760254 19.41821289 48.94262695 C-9.32243904 49.68794029 -37.55770756 52.59381949 -65.93893433 57.00621033 C-72.06684721 57.95867619 -78.2031823 58.84443755 -84.34375 59.7109375 C-86.00260598 59.94660183 -87.66146038 60.18227727 -89.3203125 60.41796875 C-91.00253906 60.65580078 -91.00253906 60.65580078 -92.71875 60.8984375 C-97.15183982 49.99303653 -95.87576699 35.48132538 -91.91015625 24.6484375 C-85.36383303 9.53823571 -74.90918819 -2.27316774 -59.65625 -9.0390625 C-38.83283809 -16.88164621 -17.60392348 -13.60763051 0 0 Z " fill="#FCFCFC" transform="translate(355.71875,63.1015625)"/>
<path d="M0 0 C2.25067085 0.00563558 4.50133416 0.00846083 6.75201035 0.0110817 C26.304936 0.044107 45.82029255 0.3644456 65.34469223 1.50555801 C66.31474197 1.5557811 67.28479172 1.60600418 68.28423691 1.65774918 C70.990387 1.80393235 73.69218171 1.98222433 76.39547348 2.17352676 C77.16312027 2.21336685 77.93076706 2.25320694 78.72167587 2.2942543 C84.26540669 2.75339646 88.93460393 4.42163182 93.03219223 8.31805801 C93.53219223 11.13055801 93.53219223 11.13055801 93.03219223 13.31805801 C86.74583435 13.41998671 80.56727924 13.29085352 74.30981064 12.6668129 C51.67000758 10.43408601 29.00585157 10.14958692 6.27340317 10.18768692 C2.82821687 10.19341781 -0.61689279 10.18996482 -4.06207657 10.18425465 C-31.22703007 9.94952089 -31.22703007 9.94952089 -58.21780777 12.63055801 C-59.03281754 12.75664444 -59.8478273 12.88273087 -60.68753433 13.01263809 C-68.26861065 14.24726629 -75.61051971 16.122019 -82.96780777 18.31805801 C-81.21752744 20.06833834 -78.8267048 19.46990454 -76.44827652 19.47430801 C-69.08914278 19.41816968 -61.82652057 18.75580028 -54.51169205 18.03467178 C-42.79337596 16.89710501 -31.12227308 16.00518691 -19.34280777 15.94305801 C-18.31453873 15.92952286 -17.28626968 15.9159877 -16.22684097 15.90204239 C-9.95776814 15.93974165 -4.77325525 16.93842081 1.03219223 19.31805801 C0.43737688 22.61861561 0.21337868 23.17435842 -2.57327652 25.38446426 C-6.05481017 27.36761634 -9.51185275 28.9319139 -13.28030777 30.25555801 C-14.00323013 30.51079239 -14.7261525 30.76602676 -15.4709816 31.02899551 C-22.95171328 33.53009054 -30.59663073 34.96689048 -38.33792496 36.4122963 C-49.05533216 38.43836702 -59.49929645 41.27688224 -69.96780777 44.31805801 C-68.66327652 44.17368301 -67.35874527 44.02930801 -66.01468277 43.88055801 C-39.32686172 41.00664218 -39.32686172 41.00664218 -32.96780777 45.31805801 C-33.39978412 50.06979781 -34.29550072 52.23805855 -37.96780777 55.31805801 C-37.30780777 52.67805801 -36.64780777 50.03805801 -35.96780777 47.31805801 C-37.96714371 47.42633926 -37.96714371 47.42633926 -40.00687027 47.53680801 C-50.05736144 48.05353805 -60.09046623 48.42285087 -70.15530777 48.44305801 C-71.09261734 48.44756973 -72.02992691 48.45208145 -72.9956398 48.45672989 C-73.86688492 48.4547963 -74.73813004 48.4528627 -75.63577652 48.45087051 C-76.78469376 48.44917862 -76.78469376 48.44917862 -77.95682144 48.44745255 C-79.96780777 48.31805801 -79.96780777 48.31805801 -82.96780777 47.31805801 C-82.90530777 45.06805801 -82.90530777 45.06805801 -81.96780777 42.31805801 C-76.90032938 38.94633737 -71.86799423 37.11297853 -66.03030777 35.50555801 C-65.15801529 35.25983047 -64.28572281 35.01410294 -63.38699722 34.76092911 C-49.7291815 31.02898014 -35.81873216 28.22925821 -21.96780777 25.31805801 C-22.76847672 25.40893692 -23.56914566 25.49981583 -24.3940773 25.59344864 C-41.46770841 27.47470761 -58.41071781 28.63795644 -75.59280777 28.69305801 C-76.41331619 28.70055069 -77.23382462 28.70804337 -78.07919693 28.71576309 C-80.43047283 28.73346537 -82.780581 28.72898614 -85.13187027 28.71649551 C-85.82228409 28.72244736 -86.51269791 28.7283992 -87.22403336 28.7345314 C-92.20142862 28.66357665 -95.57887383 27.46874243 -99.96780777 25.31805801 C-100.28030777 22.63055801 -100.28030777 22.63055801 -99.96780777 19.31805801 C-97.46780777 16.44305801 -97.46780777 16.44305801 -94.96780777 14.31805801 C-102.19316143 14.06000967 -109.08196053 15.05596067 -116.21780777 16.13055801 C-117.47359634 16.31650528 -118.72938492 16.50245255 -120.02322769 16.69403458 C-122.54002756 17.06698924 -125.05655526 17.4417859 -127.57278824 17.8185463 C-130.33906643 18.22555084 -133.10541818 18.60953824 -135.87796402 18.97040176 C-176.11776112 24.32266819 -215.94194127 35.00447706 -254.17483902 48.51727676 C-256.0877586 49.17284674 -258.02622462 49.75300209 -259.96780777 50.31805801 C-260.62780777 49.98805801 -261.28780777 49.65805801 -261.96780777 49.31805801 C-234.2232002 37.37669761 -205.20329153 28.85680723 -175.83841324 21.99383926 C-173.3896654 21.41736928 -170.94539282 20.82684552 -168.50296402 20.22430801 C-132.84504095 11.47123904 -95.70682314 5.45051792 -59.11432266 2.49875259 C-56.58079476 2.28547909 -54.04991832 2.04728492 -51.51834488 1.8119545 C-34.33980319 0.2810318 -17.23123409 -0.04381718 0 0 Z " fill="#04ADEC" transform="translate(370.9678077697754,118.68194198608398)"/>
<path d="M0 0 C3.63 0 7.26 0 11 0 C11.029729 1.97577026 11.029729 1.97577026 11.06005859 3.99145508 C11.13605841 8.87251088 11.22478448 13.75326638 11.31738281 18.6340332 C11.35569581 20.74757972 11.39054457 22.86119196 11.421875 24.97485352 C11.46747504 28.0108186 11.52547783 31.04633028 11.5859375 34.08203125 C11.59748871 35.02899368 11.60903992 35.97595612 11.62094116 36.95161438 C11.64081085 37.83230087 11.66068054 38.71298737 11.68115234 39.62036133 C11.69447601 40.39535477 11.70779968 41.17034821 11.7215271 41.96882629 C11.89208435 44.31104803 11.89208435 44.31104803 14 47 C11.03 47 8.06 47 5 47 C4.505 45.02 4.505 45.02 4 43 C2.88625 43.639375 1.7725 44.27875 0.625 44.9375 C-5.84829491 48.65365078 -11.53342359 48.62079736 -19 48 C-21.76676984 47.01478491 -22.80557593 46.07892806 -25 44 C-25.7425 43.34 -26.485 42.68 -27.25 42 C-31.37027111 37.29111873 -31.4277189 33.07298109 -31.31640625 26.98046875 C-30.73327712 21.48753628 -28.51036952 18.43485105 -24.5 14.625 C-18.71515736 10.86485228 -11.67028129 11.50406831 -5 12 C-2.58277272 12.74376224 -1.09811854 13.56129014 1 15 C1.02703381 13.06257659 1.04641125 11.12504521 1.0625 9.1875 C1.07410156 8.10855469 1.08570313 7.02960938 1.09765625 5.91796875 C1.13624766 2.93487831 1.13624766 2.93487831 0 0 Z " fill="#F4F3F4" transform="translate(520,181)"/>
<path d="M0 0 C2.89869699 2.32344011 4.86584891 4.91529158 6.515625 8.21484375 C7.00891255 14.06960086 7.37306788 19.40468656 4.828125 24.77734375 C-0.01078388 29.87781527 -4.0728759 32.90568788 -11.19140625 33.55078125 C-26.07874143 33.87880728 -26.07874143 33.87880728 -31.484375 29.21484375 C-36.31819558 23.14158199 -37.29121569 17.78761993 -36.484375 10.21484375 C-34.68275768 4.56037011 -30.63846014 0.95012577 -25.484375 -1.78515625 C-17.94008366 -4.40562913 -6.86883365 -4.19596142 0 0 Z " fill="#F6F6F7" transform="translate(427.484375,195.78515625)"/>
<path d="M0 0 C3.80536598 2.32458226 6.32093424 5.32936847 8.3125 9.3125 C8.81428565 15.75851568 9.27479274 21.89736659 5.3125 27.3125 C-1.30984451 33.64691649 -6.79577989 34.71635822 -15.65527344 34.67822266 C-21.12066585 34.54165049 -25.47844415 33.93295437 -29.6875 30.3125 C-34.32394933 24.60610082 -35.42380544 19.59374269 -34.6875 12.3125 C-32.94491017 6.60067777 -30.60052209 3.68418183 -25.6875 0.3125 C-17.98188285 -2.82031154 -7.69131202 -3.57769128 0 0 Z " fill="#F6F6F7" transform="translate(474.6875,194.6875)"/>
<path d="M0 0 C0.66 1.32 1.32 2.64 2 4 C2.86625 3.2884375 2.86625 3.2884375 3.75 2.5625 C8.74398375 -0.90554427 15.13343156 -0.67363213 21 0 C23.0340906 1.28072371 25.04402816 2.60287726 27 4 C29.64820302 3.36947547 31.42731146 2.35322287 33.72265625 0.9375 C39.20939648 -1.32119237 46.72678147 -0.95063773 52.3671875 0.6875 C56.66972524 2.90339927 58.31235078 5.60437496 60 10 C60.46824385 13.72557654 60.55629542 17.43573905 60.625 21.1875 C60.67600853 23.16025481 60.73053787 25.13292261 60.7890625 27.10546875 C60.80662598 27.97324951 60.82418945 28.84103027 60.84228516 29.73510742 C60.91695261 32.16679494 60.91695261 32.16679494 62 35 C57.38 35 52.76 35 48 35 C48.66 33.68 49.32 32.36 50 31 C50.30327096 28.84780086 50.30327096 28.84780086 50.265625 26.59375 C50.26820313 25.76746094 50.27078125 24.94117188 50.2734375 24.08984375 C50.26183594 22.80787109 50.26183594 22.80787109 50.25 21.5 C50.25773437 20.64535156 50.26546875 19.79070312 50.2734375 18.91015625 C50.27085937 18.08386719 50.26828125 17.25757813 50.265625 16.40625 C50.26336914 15.65666016 50.26111328 14.90707031 50.25878906 14.13476562 C49.96247171 11.69042698 49.29430108 10.08684667 48 8 C44.82245725 6.41122863 41.46605757 6.72491607 38 7 C34.5796134 8.17013226 34.08459518 8.87310723 32 12 C31.69327059 14.17411468 31.69327059 14.17411468 31.734375 16.5625 C31.73179687 17.44164062 31.72921875 18.32078125 31.7265625 19.2265625 C31.73816406 20.59941406 31.73816406 20.59941406 31.75 22 C31.74226563 22.91523438 31.73453125 23.83046875 31.7265625 24.7734375 C31.73042969 26.09214844 31.73042969 26.09214844 31.734375 27.4375 C31.73663086 28.24058594 31.73888672 29.04367188 31.74121094 29.87109375 C31.87424817 32.29913454 31.87424817 32.29913454 34 35 C29.05 35 24.1 35 19 35 C19.66 34.01 20.32 33.02 21 32 C21.45642994 28.53611866 21.37030492 25.05329246 21.375 21.5625 C21.39949219 20.60794922 21.42398438 19.65339844 21.44921875 18.66992188 C21.52882108 13.19263538 21.52882108 13.19263538 19.22265625 8.37109375 C15.89443496 6.31800821 12.73721341 6.2584894 9 7 C5.39659676 9.13932523 5.39659676 9.13932523 3.3828125 12.67578125 C2.8446449 15.94322738 2.82890322 19.12732923 2.8125 22.4375 C2.79123047 24.38462891 2.79123047 24.38462891 2.76953125 26.37109375 C2.8318104 30.33303237 2.8318104 30.33303237 5 35 C0.38 35 -4.24 35 -9 35 C-8.34 33.68 -7.68 32.36 -7 31 C-6.69335164 28.16312864 -6.69335164 28.16312864 -6.734375 25.0625 C-6.73179687 23.92039063 -6.72921875 22.77828125 -6.7265625 21.6015625 C-6.73429688 20.41304687 -6.74203125 19.22453125 -6.75 18 C-6.74226562 16.81148437 -6.73453125 15.62296875 -6.7265625 14.3984375 C-6.73042969 12.68527344 -6.73042969 12.68527344 -6.734375 10.9375 C-6.73663086 9.89464844 -6.73888672 8.85179687 -6.74121094 7.77734375 C-6.861244 4.67367417 -6.861244 4.67367417 -9 1 C-4.545 0.505 -4.545 0.505 0 0 Z " fill="#F5F5F6" transform="translate(171,193)"/>
<path d="M0 0 C3.44646328 3.82940364 5.09727034 6.25165253 5.2109375 11.359375 C5.23929687 12.22820312 5.26765625 13.09703125 5.296875 13.9921875 C5.34851021 15.81491043 5.3929106 17.63785425 5.4296875 19.4609375 C5.61542892 24.70813268 6.1610991 28.41525095 9 33 C5.7 33 2.4 33 -1 33 C-1 32.34 -1 31.68 -1 31 C-2.69769531 31.72896484 -2.69769531 31.72896484 -4.4296875 32.47265625 C-9.05783827 34.20184424 -13.22112547 34.48298282 -18.125 34.4375 C-18.89714844 34.45748047 -19.66929687 34.47746094 -20.46484375 34.49804688 C-25.76675798 34.49353076 -28.81302162 33.51884353 -33 30 C-35.36086122 26.45870816 -35.57269578 25.17249782 -35 21 C-31.65098732 15.66251103 -28.0848752 13.64210603 -22 12 C-18.83340379 11.55221523 -15.6947258 11.40355489 -12.5 11.3125 C-11.26636719 11.26125977 -11.26636719 11.26125977 -10.0078125 11.20898438 C-8.0056545 11.1275012 -6.00285432 11.06205425 -4 11 C-5.11854586 7.27385847 -5.11854586 7.27385847 -8 5 C-16.4926394 4.34960641 -23.94852675 5.28928355 -32 8 C-31.69181644 6.68647977 -31.37832335 5.37420428 -31.0625 4.0625 C-30.88847656 3.33160156 -30.71445313 2.60070312 -30.53515625 1.84765625 C-30 0 -30 0 -29 -1 C-8.10747027 -4.24194427 -8.10747027 -4.24194427 0 0 Z " fill="#F3F2F3" transform="translate(273,195)"/>
<path d="M0 0 C14.19 0 28.38 0 43 0 C45.25 6.75 45.25 6.75 44 10 C43.13938965 9.67854004 42.2787793 9.35708008 41.39208984 9.02587891 C38.01276582 8.0038608 35.2429898 7.69038584 31.7265625 7.5859375 C30.57285156 7.54726562 29.41914063 7.50859375 28.23046875 7.46875 C27.04066406 7.4378125 25.85085938 7.406875 24.625 7.375 C23.41199219 7.33632812 22.19898438 7.29765625 20.94921875 7.2578125 C17.96638735 7.16386505 14.98321494 7.08085747 12 7 C12 11.29 12 15.58 12 20 C20.91 20 29.82 20 39 20 C37 25 37 25 35 27 C32.66162109 27.22705078 32.66162109 27.22705078 29.7734375 27.1953125 C28.2265625 27.18564453 28.2265625 27.18564453 26.6484375 27.17578125 C25.56820313 27.15902344 24.48796875 27.14226562 23.375 27.125 C22.28703125 27.11597656 21.1990625 27.10695312 20.078125 27.09765625 C17.38519848 27.07403409 14.69270745 27.04109556 12 27 C12.14080555 29.77117304 12.28743118 32.54182641 12.4375 35.3125 C12.47681641 36.09818359 12.51613281 36.88386719 12.55664062 37.69335938 C12.61948242 38.8293457 12.61948242 38.8293457 12.68359375 39.98828125 C12.72025146 40.68477783 12.75690918 41.38127441 12.79467773 42.09887695 C12.95581153 44.2216572 12.95581153 44.2216572 14 47 C9.38 47 4.76 47 0 47 C0.33 45.68 0.66 44.36 1 43 C1.08707817 41.64264987 1.12783228 40.28177039 1.12939453 38.92163086 C1.13254669 38.13078598 1.13569885 37.3399411 1.13894653 36.52513123 C1.1369223 35.68023636 1.13489807 34.83534149 1.1328125 33.96484375 C1.13376923 33.08977676 1.13472595 32.21470978 1.13571167 31.31312561 C1.13639115 29.46648079 1.13455302 27.61983357 1.13037109 25.77319336 C1.12501315 22.9444443 1.13032722 20.11585355 1.13671875 17.28710938 C1.13605805 15.49218715 1.13477707 13.69726502 1.1328125 11.90234375 C1.13483673 11.05542465 1.13686096 10.20850555 1.13894653 9.33592224 C1.12549849 5.9753935 1.07004416 3.21013249 0 0 Z " fill="#F2F2F3" transform="translate(346,181)"/>
<path d="M0 0 C0.76763672 -0.00128906 1.53527344 -0.00257813 2.32617188 -0.00390625 C3.51629883 0.00189453 3.51629883 0.00189453 4.73046875 0.0078125 C5.90319336 0.00201172 5.90319336 0.00201172 7.09960938 -0.00390625 C11.80933612 0.00396297 16.27303051 0.35142102 20.91796875 1.1328125 C20.66235552 3.4759338 20.32526103 5.81124653 19.91796875 8.1328125 C17.91796875 9.1328125 17.91796875 9.1328125 14.60546875 8.1953125 C8.79279701 6.5944103 2.89597313 6.96878189 -3.08203125 7.1328125 C-3.41203125 8.7828125 -3.74203125 10.4328125 -4.08203125 12.1328125 C-2.85226562 12.31457031 -1.6225 12.49632812 -0.35546875 12.68359375 C1.27742547 12.93697389 2.91023356 13.19090958 4.54296875 13.4453125 C5.35121094 13.56326172 6.15945313 13.68121094 6.9921875 13.80273438 C12.64349724 14.69867372 17.42899802 15.96499929 21.85546875 19.8203125 C23.47514579 23.34549194 23.1272864 26.54910288 21.91796875 30.1328125 C18.53474426 33.70399391 14.68303815 35.91273806 9.72167969 36.30761719 C7.1175644 36.365804 4.52245372 36.35617135 1.91796875 36.3203125 C1.02851562 36.31966797 0.1390625 36.31902344 -0.77734375 36.31835938 C-4.99638036 36.29002256 -8.97153878 36.20325325 -13.08203125 35.1328125 C-13.74203125 32.1628125 -14.40203125 29.1928125 -15.08203125 26.1328125 C-14.355 26.349375 -13.62796875 26.5659375 -12.87890625 26.7890625 C-4.83314589 29.01711922 3.78024816 30.84538603 11.91796875 28.1328125 C12.24796875 26.4828125 12.57796875 24.8328125 12.91796875 23.1328125 C11.93957031 23.02324219 10.96117187 22.91367188 9.953125 22.80078125 C-7.96465691 20.6833915 -7.96465691 20.6833915 -13.14453125 16.4453125 C-14.55750758 12.9599709 -14.9834053 9.76715268 -14.08203125 6.1328125 C-10.44169989 1.32616139 -5.75860758 0.00943261 0 0 Z " fill="#F5F5F5" transform="translate(554.08203125,192.8671875)"/>
<path d="M0 0 C3.63 0 7.26 0 11 0 C11.04898438 1.61390625 11.09796875 3.2278125 11.1484375 4.890625 C11.22347498 7.01043383 11.29902239 9.13022466 11.375 11.25 C11.4059375 12.31347656 11.436875 13.37695312 11.46875 14.47265625 C11.50742188 15.49746094 11.54609375 16.52226562 11.5859375 17.578125 C11.6173584 18.52075195 11.6487793 19.46337891 11.68115234 20.43457031 C12.0103211 23.08304297 12.57064157 24.75849166 14 27 C16.5360528 28.2680264 18.48011164 28.27534899 21.3125 28.375 C22.25738281 28.42398438 23.20226562 28.47296875 24.17578125 28.5234375 C28.30244749 27.75860586 29.60578181 26.4338697 32 23 C32.61754804 19.60033314 32.51822986 16.31745553 32.375 12.875 C32.36082031 11.96878906 32.34664062 11.06257812 32.33203125 10.12890625 C32.25074372 6.47096728 32.16405249 3.49215746 31 0 C34.63 0 38.26 0 42 0 C42.029729 1.38505737 42.029729 1.38505737 42.06005859 2.7980957 C42.13817739 6.22561174 42.22486997 9.65268798 42.31738281 13.07983398 C42.35565347 14.56282212 42.39050978 16.04590248 42.421875 17.52905273 C42.467568 19.66163072 42.52555338 21.79357491 42.5859375 23.92578125 C42.6173584 25.20880127 42.6487793 26.49182129 42.68115234 27.8137207 C42.76379228 31.15387459 42.76379228 31.15387459 45 34 C42.03 34 39.06 34 36 34 C35.505 32.02 35.505 32.02 35 30 C34.52433594 30.3609375 34.04867187 30.721875 33.55859375 31.09375 C26.48267617 35.78496607 19.31214509 36.12834549 11 35 C6.83464036 33.16441779 4.73823148 31.2150725 3 27 C2.55714169 23.52359963 2.48831665 20.0640089 2.4375 16.5625 C2.31068885 8.10188444 2.31068885 8.10188444 0 0 Z " fill="#F5F5F6" transform="translate(112,194)"/>
<path d="M0 0 C4.62 0 9.24 0 14 0 C13.34 1.32 12.68 2.64 12 4 C11.7634644 6.8565386 11.62781481 9.62510746 11.5859375 12.484375 C11.56657135 13.29996887 11.5472052 14.11556274 11.5272522 14.95587158 C11.46760425 17.55380892 11.42113058 20.15179093 11.375 22.75 C11.33680658 24.51434194 11.29775405 26.27866551 11.2578125 28.04296875 C11.16191495 32.36182946 11.07782953 36.68077744 11 41 C11.58685074 40.97537689 12.17370148 40.95075378 12.77833557 40.92538452 C13.56248337 40.89248322 14.34663116 40.85958191 15.15454102 40.82568359 C16.38154221 40.7738089 16.38154221 40.7738089 17.6333313 40.72088623 C19.32041911 40.65067935 21.00769766 40.58501563 22.69506836 40.52197266 C27.57617673 40.28991394 32.14922353 39.67763441 36.89672852 38.51318359 C39.2486192 37.93933865 41.62612621 37.47477476 44 37 C43.34 40.3 42.68 43.6 42 47 C27.81 47 13.62 47 -1 47 C-0.34 45.35 0.32 43.7 1 42 C1.17772175 39.07911174 1.25691665 36.25810195 1.23046875 33.33984375 C1.23001053 32.51295547 1.22955231 31.6860672 1.2290802 30.8341217 C1.22606805 29.09179239 1.21821289 27.34946551 1.20581055 25.60717773 C1.1875384 22.9430994 1.18530117 20.27936889 1.18554688 17.61523438 C1.18063161 15.91926783 1.17480325 14.22330364 1.16796875 12.52734375 C1.16685593 11.73247055 1.1657431 10.93759735 1.16459656 10.11863708 C1.13371103 6.51517082 0.88008969 3.52035876 0 0 Z " fill="#FBFBFB" transform="translate(65,181)"/>
<path d="M0 0 C-3.63 0.99 -7.26 1.98 -11 3 C-4.07 3.495 -4.07 3.495 3 4 C2 9 2 9 -0.0625 11 C-2.27820383 12.86835961 -2.27820383 12.86835961 -2.25 15.75 C-2.1675 16.4925 -2.085 17.235 -2 18 C-2.99 17.67 -3.98 17.34 -5 17 C-5.3125 14.3125 -5.3125 14.3125 -5 11 C-2.5 8.125 -2.5 8.125 0 6 C-7.22535367 5.74195165 -14.11415276 6.73790266 -21.25 7.8125 C-22.50578857 7.99844727 -23.76157715 8.18439453 -25.05541992 8.37597656 C-27.57221979 8.74893123 -30.08874749 9.12372788 -32.60498047 9.50048828 C-35.37125866 9.90749282 -38.13761041 10.29148023 -40.91015625 10.65234375 C-81.14995335 16.00461018 -120.9741335 26.68641904 -159.20703125 40.19921875 C-161.11995084 40.85478873 -163.05841685 41.43494407 -165 42 C-165.66 41.67 -166.32 41.34 -167 41 C-139.25539243 29.0586396 -110.23548376 20.53874921 -80.87060547 13.67578125 C-78.42185763 13.09931127 -75.97758505 12.5087875 -73.53515625 11.90625 C-55.93784828 7.58912349 -38.07805399 4.43080277 -20.20904541 1.47091675 C-18.82724383 1.24156075 -17.44584643 1.00975537 -16.06488037 0.77542114 C-14.13058432 0.44869345 -12.19422585 0.13424807 -10.2578125 -0.1796875 C-9.1455127 -0.36257324 -8.03321289 -0.54545898 -6.88720703 -0.73388672 C-4 -1 -4 -1 0 0 Z " fill="#159ED3" transform="translate(276,127)"/>
<path d="M0 0 C3.26039875 0.01097722 6.52075678 0.0104636 9.78117085 0.00986195 C12.95801456 0.01013426 16.13483165 0.01562044 19.31166649 0.02286339 C20.80944812 0.02601376 22.30723271 0.02800882 23.80501747 0.0287571 C30.97774777 0.03629797 37.99267358 0.14289202 45.09857178 1.19561768 C47.11012825 1.30796777 49.1235589 1.39188797 51.13763428 1.44171143 C52.75025146 1.49101807 52.75025146 1.49101807 54.39544678 1.5413208 C56.62189949 1.60273117 58.84847028 1.65999462 61.07513428 1.7131958 C66.4204005 1.88344767 71.11139065 2.03450586 76.09857178 4.19561768 C76.09857178 4.52561768 76.09857178 4.85561768 76.09857178 5.19561768 C67.49797776 5.33377172 59.04057159 4.88679905 50.46966553 4.21514893 C34.43615825 3.06297144 18.45281921 2.83664141 2.38251877 2.87755966 C0.11893391 2.8832231 -2.14464339 2.88602907 -4.40823364 2.88864136 C-27.67291505 2.92761966 -50.77726072 3.44174193 -73.90142822 6.19561768 C-74.64175293 6.28283081 -75.38207764 6.37004395 -76.14483643 6.4598999 C-109.9938986 10.48541851 -144.46286912 15.80532383 -177.48736572 24.35968018 C-180.7714362 25.16378897 -183.53720573 25.3638288 -186.90142822 25.19561768 C-184.13551486 22.42970431 -181.71680523 22.72187657 -177.90142822 22.19561768 C-177.29943604 21.8785083 -176.69744385 21.56139893 -176.07720947 21.23468018 C-173.24071251 19.88008737 -170.5699365 19.52305356 -167.46392822 19.07061768 C-166.35146729 18.90303955 -165.23900635 18.73546143 -164.09283447 18.56280518 C-161.32053672 18.24383824 -158.68700553 18.12272406 -155.90142822 18.19561768 C-155.90142822 17.53561768 -155.90142822 16.87561768 -155.90142822 16.19561768 C-155.33633545 16.10997559 -154.77124268 16.0243335 -154.18902588 15.93609619 C-151.63428189 15.5469195 -149.08036075 15.15258283 -146.52642822 14.75811768 C-145.6369751 14.62341064 -144.74752197 14.48870361 -143.83111572 14.34991455 C-142.98033447 14.21778564 -142.12955322 14.08565674 -141.25299072 13.94952393 C-140.07470703 13.76885376 -140.07470703 13.76885376 -138.87261963 13.58453369 C-136.83531138 13.2732353 -136.83531138 13.2732353 -134.90142822 12.19561768 C-132.30998917 11.88516242 -129.7177109 11.68587855 -127.11627197 11.47686768 C-124.93072154 11.42904357 -124.93072154 11.42904357 -123.90142822 10.19561768 C-122.42746083 9.98793538 -120.94651562 9.82845751 -119.46392822 9.69561768 C-116.05645318 9.40414823 -116.05645318 9.40414823 -112.90142822 8.19561768 C-112.57142822 7.53561768 -112.24142822 6.87561768 -111.90142822 6.19561768 C-109.51226807 5.60137939 -109.51226807 5.60137939 -106.36236572 5.12530518 C-105.22412354 4.95128174 -104.08588135 4.7772583 -102.91314697 4.59796143 C-101.11297119 4.33692627 -101.11297119 4.33692627 -99.27642822 4.07061768 C-98.09951416 3.88885986 -96.9226001 3.70710205 -95.71002197 3.51983643 C-90.05906719 2.67441799 -84.61693488 1.94420243 -78.90142822 2.19561768 C-78.90142822 2.52561768 -78.90142822 2.85561768 -78.90142822 3.19561768 C-77.15151488 3.2227715 -75.40147877 3.24208318 -73.65142822 3.25811768 C-72.67689697 3.26971924 -71.70236572 3.2813208 -70.69830322 3.29327393 C-68.03731943 3.30097842 -68.03731943 3.30097842 -66.0655365 2.72254944 C-45.39318333 -2.31089534 -21.15962555 -0.09018804 0 0 Z " fill="#123345" transform="translate(374.90142822265625,116.80438232421875)"/>
<path d="M0 0 C0 0.66 0 1.32 0 2 C-11.88 4.475 -11.88 4.475 -24 7 C-24 7.99 -24 8.98 -24 10 C-23.67 9.67 -23.34 9.34 -23 9 C-21.081875 8.814375 -21.081875 8.814375 -19.125 8.625 C-15.36540179 8.25923367 -11.93816214 7.49395149 -8.3125 6.4375 C-4.41818211 5.3107732 -1.09004134 4.66837503 3 5 C-0.27128492 7.18085661 -2.58169048 7.72483124 -6.40625 8.55078125 C-7.0395372 8.68996979 -7.6728244 8.82915833 -8.32530212 8.9725647 C-9.68097582 9.27024567 -11.03723519 9.56526967 -12.39401245 9.85787964 C-15.912979 10.61752033 -19.42734379 11.39771801 -22.94140625 12.1796875 C-23.63524918 12.33386642 -24.3290921 12.48804535 -25.04396057 12.64689636 C-33.42752021 14.52324787 -41.72101346 16.71141391 -50 19 C-48.04320312 18.7834375 -48.04320312 18.7834375 -46.046875 18.5625 C-19.35905396 15.68858417 -19.35905396 15.68858417 -13 20 C-13.43197635 24.7517398 -14.32769295 26.92000054 -18 30 C-17.34 27.36 -16.68 24.72 -16 22 C-17.33289063 22.0721875 -18.66578125 22.144375 -20.0390625 22.21875 C-30.08955367 22.73548004 -40.12265846 23.10479286 -50.1875 23.125 C-51.59346436 23.13176758 -51.59346436 23.13176758 -53.02783203 23.13867188 C-53.89907715 23.13673828 -54.77032227 23.13480469 -55.66796875 23.1328125 C-56.43391357 23.13168457 -57.1998584 23.13055664 -57.98901367 23.12939453 C-60 23 -60 23 -63 22 C-62.9375 19.75 -62.9375 19.75 -62 17 C-56.93262851 13.62835048 -51.90018787 11.79460414 -46.0625 10.1875 C-45.18875732 9.94177246 -44.31501465 9.69604492 -43.41479492 9.44287109 C-8.81547903 0 -8.81547903 0 0 0 Z " fill="#11A1D8" transform="translate(351,144)"/>
<path d="M0 0 C3.68623011 1.61272567 4.75355 2.630325 7 6 C7.67377709 11.06116277 7.80185639 15.54477914 5.3125 20.0625 C0.90933391 23.75163915 -3.13383927 24.49816823 -8.77734375 24.39453125 C-12.59851795 23.71625604 -14.35802063 21.77407834 -17 19 C-18.73591152 15.52817697 -18.46571673 11.79591036 -18 8 C-13.87132596 -0.10989544 -8.51596286 -0.91094578 0 0 Z " fill="#2A282E" transform="translate(467,199)"/>
<path d="M0 0 C2.2700316 1.46400589 3.83724265 2.73307905 5.0546875 5.16796875 C5.55461489 10.25739354 5.87161417 14.68539812 3.3671875 19.23046875 C-1.18446069 23.04401183 -5.05106805 23.68500774 -10.9453125 23.16796875 C-15.00433917 21.60680465 -18.00630661 20.15370309 -19.9453125 16.16796875 C-20.48515753 10.58957013 -20.16562666 6.94291733 -16.9453125 2.16796875 C-12.4930282 -1.87956243 -5.48096083 -2.34426638 0 0 Z " fill="#2A272E" transform="translate(419.9453125,199.83203125)"/>
<path d="M0 0 C3.17852316 1.64448689 5.37801764 3.75603527 7 7 C7.51436888 11.08555854 7.92098732 15.21847627 5.98828125 18.95703125 C3.33853849 22.22743448 1.13056143 23.71592514 -3.05078125 24.2734375 C-7.31853138 24.46508086 -10.1159053 24.41093753 -13.5 21.625 C-17.52794771 17.3956549 -17.33014201 14.37967014 -17.29296875 8.70703125 C-16.90428228 5.11556825 -15.68553733 3.36959176 -13 1 C-9.03716439 -0.98141781 -4.30789762 -0.55820645 0 0 Z " fill="#28262C" transform="translate(515,199)"/>
<path d="M0 0 C0.66 1.32 1.32 2.64 2 4 C2.4125 3.525625 2.825 3.05125 3.25 2.5625 C6.95998257 -0.74998443 11.49257631 -0.10655022 16.25 -0.0625 C18.14492188 -0.04896484 18.14492188 -0.04896484 20.078125 -0.03515625 C21.04234375 -0.02355469 22.0065625 -0.01195312 23 0 C22.47731534 2.76276177 21.89130413 5.3260876 21 8 C19.55367188 7.93039063 19.55367188 7.93039063 18.078125 7.859375 C16.81484375 7.82328125 15.5515625 7.7871875 14.25 7.75 C12.99703125 7.70359375 11.7440625 7.6571875 10.453125 7.609375 C7.03366549 7.76020265 7.03366549 7.76020265 4.5703125 9.421875 C2.17537547 13.35386116 2.49572758 16.98907297 2.625 21.5 C2.62693359 22.78197266 2.62693359 22.78197266 2.62890625 24.08984375 C2.6924537 28.61583453 2.90030631 30.80061261 5 35 C0.38 35 -4.24 35 -9 35 C-8.34 33.35 -7.68 31.7 -7 30 C-6.69648387 27.28290892 -6.69648387 27.28290892 -6.734375 24.4375 C-6.73179687 23.39335937 -6.72921875 22.34921875 -6.7265625 21.2734375 C-6.73429687 20.19320312 -6.74203125 19.11296875 -6.75 18 C-6.74226563 16.91976562 -6.73453125 15.83953125 -6.7265625 14.7265625 C-6.72914063 13.68242187 -6.73171875 12.63828125 -6.734375 11.5625 C-6.73663086 10.61503906 -6.73888672 9.66757813 -6.74121094 8.69140625 C-7.01866209 5.80591423 -7.80043188 3.62546986 -9 1 C-4.545 0.505 -4.545 0.505 0 0 Z " fill="#F6F6F7" transform="translate(295,193)"/>
<path d="M0 0 C0.88429688 -0.01417969 1.76859375 -0.02835938 2.6796875 -0.04296875 C5.125 0.1875 5.125 0.1875 8.125 2.1875 C8.453125 5.19140625 8.453125 5.19140625 8.375 8.75 C8.35179687 10.51537109 8.35179687 10.51537109 8.328125 12.31640625 C8.125 15.1875 8.125 15.1875 7.125 16.1875 C5.1687407 16.28677286 3.20877091 16.31719729 1.25 16.3125 C0.18007813 16.31507813 -0.88984375 16.31765625 -1.9921875 16.3203125 C-4.875 16.1875 -4.875 16.1875 -7.875 15.1875 C-9.91618701 15.14324662 -11.95871258 15.14814988 -14 15.1875 C-15.95797305 15.22506303 -17.91722483 15.23425284 -19.875 15.1875 C-20.875 14.1875 -20.875 14.1875 -20.97265625 11.24609375 C-20.96105469 10.05113281 -20.94945312 8.85617187 -20.9375 7.625 C-20.92847656 6.42746094 -20.91945313 5.22992188 -20.91015625 3.99609375 C-20.89855469 3.06925781 -20.88695312 2.14242187 -20.875 1.1875 C-20.215 1.1875 -19.555 1.1875 -18.875 1.1875 C-18.545 4.8175 -18.215 8.4475 -17.875 12.1875 C-16.555 12.1875 -15.235 12.1875 -13.875 12.1875 C-13.545 8.5575 -13.215 4.9275 -12.875 1.1875 C-11.225 1.5175 -9.575 1.8475 -7.875 2.1875 C-7.875 4.4975 -7.875 6.8075 -7.875 9.1875 C-7.215 9.1875 -6.555 9.1875 -5.875 9.1875 C-5.895625 7.888125 -5.91625 6.58875 -5.9375 5.25 C-5.95899454 3.89584367 -5.94648199 2.53993917 -5.875 1.1875 C-4.21846314 -0.46903686 -2.26849204 0.01643835 0 0 Z " fill="#0D3950" transform="translate(360.875,248.8125)"/>
<path d="M0 0 C0.98830811 0.05867249 1.97661621 0.11734497 2.99487305 0.17779541 C5.72868249 0.34656264 8.45982759 0.53688326 11.19140625 0.73828125 C11.97963272 0.78844894 12.76785919 0.83861664 13.57997131 0.89030457 C17.71312742 1.23328314 20.41284638 1.75237732 23.4375 4.6875 C20.3538358 4.54818862 17.27066583 4.39990719 14.1875 4.25 C13.31480469 4.21068359 12.44210937 4.17136719 11.54296875 4.13085938 C10.69863281 4.08896484 9.85429687 4.04707031 8.984375 4.00390625 C8.20932617 3.96724854 7.43427734 3.93059082 6.63574219 3.89282227 C4.4375 3.6875 4.4375 3.6875 2.77139282 3.20930481 C-0.49563724 2.47887195 -3.77011493 2.31690714 -7.10302734 2.13330078 C-7.84973379 2.09119036 -8.59644024 2.04907993 -9.36577415 2.00569344 C-18.21338475 1.54776635 -27.05689984 1.54274041 -35.9140625 1.5546875 C-37.71145643 1.55401154 -39.50885027 1.5530391 -41.3062439 1.55178833 C-45.0357146 1.55032888 -48.76516106 1.55241127 -52.49462891 1.55712891 C-57.26109524 1.56286695 -62.02750574 1.55951053 -66.79397011 1.55355644 C-70.48978088 1.54993852 -74.18557845 1.55109438 -77.88138962 1.55368423 C-79.63957094 1.55434794 -81.39775349 1.55354466 -83.15593338 1.55120468 C-85.60740589 1.54865325 -88.05878809 1.55255187 -90.51025391 1.55810547 C-91.22513977 1.55608124 -91.94002563 1.55405701 -92.67657471 1.55197144 C-97.0575064 1.57027243 -101.24017135 1.99106005 -105.5625 2.6875 C-109.28644879 3.08343807 -113.01739175 3.38484815 -116.75 3.6875 C-117.82048584 3.77435059 -118.89097168 3.86120117 -119.99389648 3.95068359 C-132.83268858 4.93664659 -145.69317652 5.33190598 -158.5625 5.6875 C-158.5625 5.3575 -158.5625 5.0275 -158.5625 4.6875 C-106.26948004 -3.18156704 -52.70892419 -3.28136197 0 0 Z " fill="#1A9CCF" transform="translate(436.5625,120.3125)"/>
<path d="M0 0 C3.03969955 0.62023281 4.36252924 1.93676018 6.125 4.43359375 C7.36214895 6.90789165 7.08081362 8.14858708 6.75 10.87109375 C6.65976562 11.65355469 6.56953125 12.43601562 6.4765625 13.2421875 C6.125 15.43359375 6.125 15.43359375 5.125 18.43359375 C5.785 18.43359375 6.445 18.43359375 7.125 18.43359375 C7.125 19.09359375 7.125 19.75359375 7.125 20.43359375 C-4.52963263 20.24589103 -4.52963263 20.24589103 -9.1875 17.43359375 C-11.50745304 13.30923279 -11.7443854 10.05638343 -10.875 5.43359375 C-8.4053749 0.17221855 -5.41519234 -0.29391669 0 0 Z " fill="#1B2834" transform="translate(327.875,244.56640625)"/>
<path d="M0 0 C-6.435 1.98 -6.435 1.98 -13 4 C-11.02 4.66 -9.04 5.32 -7 6 C-4.625 7.1875 -4.625 7.1875 -3 9 C-2.42390363 12.39256751 -2.26433122 14.75669262 -4.05859375 17.7890625 C-5.375 19.4375 -5.375 19.4375 -8 22 C-8.66 22 -9.32 22 -10 22 C-9.67 19.03 -9.34 16.06 -9 13 C-10.00933594 13.144375 -11.01867187 13.28875 -12.05859375 13.4375 C-21.52691782 14.69028355 -30.88497748 15.21684831 -40.4375 15.25 C-41.53312256 15.25902344 -42.62874512 15.26804688 -43.75756836 15.27734375 C-44.78503174 15.27347656 -45.81249512 15.26960938 -46.87109375 15.265625 C-47.78818115 15.26336914 -48.70526855 15.26111328 -49.65014648 15.25878906 C-52 15 -52 15 -55 13 C-55.6875 10.375 -55.6875 10.375 -56 8 C-55.34 8 -54.68 8 -54 8 C-54 9.32 -54 10.64 -54 12 C-38.49 12 -22.98 12 -7 12 C-7 13.65 -7 15.3 -7 17 C-4.66608797 14.21885944 -4.66608797 14.21885944 -5.375 11.3125 C-5.58125 10.549375 -5.7875 9.78625 -6 9 C-14.0108842 6.32970527 -23.26017641 8.12765525 -31.47924805 9.28833008 C-35.01843706 9.78483342 -38.42515407 10.1102072 -42 10 C-41 8 -41 8 -39.10498047 7.26977539 C-37.87352295 6.93707642 -37.87352295 6.93707642 -36.6171875 6.59765625 C-35.70372559 6.34830322 -34.79026367 6.0989502 -33.84912109 5.84204102 C-32.86766113 5.58479248 -31.88620117 5.32754395 -30.875 5.0625 C-29.38540771 4.66599243 -29.38540771 4.66599243 -27.86572266 4.26147461 C-5.94992805 -1.48748201 -5.94992805 -1.48748201 0 0 Z " fill="#0F3448" transform="translate(342,154)"/>
<path d="M0 0 C0.66 0 1.32 0 2 0 C2 1.32 2 2.64 2 4 C4.31 4 6.62 4 9 4 C12 9.625 12 9.625 12 13 C12.66 13 13.32 13 14 13 C14.12375 12.071875 14.2475 11.14375 14.375 10.1875 C15 7 15 7 17 4 C17.66 4 18.32 4 19 4 C18.70996094 4.92619141 18.70996094 4.92619141 18.4140625 5.87109375 C16.85441991 10.94379267 15.48848832 15.98637315 14.4296875 21.1875 C14 23 14 23 13 25 C11.02 25 9.04 25 7 25 C6.67 23.35 6.34 21.7 6 20 C6.99 19.67 7.98 19.34 9 19 C8.52269162 17.5410574 8.04308958 16.08286504 7.5625 14.625 C7.29566406 13.81289063 7.02882813 13.00078125 6.75390625 12.1640625 C6.04820271 9.98968201 6.04820271 9.98968201 5 8 C4.67 11.3 4.34 14.6 4 18 C2.35 17.67 0.7 17.34 -1 17 C-1 13.37 -1 9.74 -1 6 C-1.66 6 -2.32 6 -3 6 C-3 5.34 -3 4.68 -3 4 C-2.34 4 -1.68 4 -1 4 C-0.67 2.68 -0.34 1.36 0 0 Z " fill="#102D3F" transform="translate(389,246)"/>
<path d="M0 0 C4.41632834 0.01096927 8.83262659 0.01046416 13.24896622 0.00986195 C17.51243976 0.0101327 21.77589317 0.01559362 26.03936005 0.02286339 C28.06961669 0.02604161 30.09987559 0.02801548 32.13013458 0.0287571 C34.93565358 0.03091259 37.74107224 0.0396306 40.54656982 0.050354 C41.79756721 0.04967422 41.79756721 0.04967422 43.07383728 0.04898071 C48.7892297 0.08110777 48.7892297 0.08110777 51.01824951 1.19561768 C54.43022161 1.4272494 57.83539598 1.5907252 61.25262451 1.7131958 C66.80429338 1.98166154 66.80429338 1.98166154 69.01824951 4.19561768 C67.07112061 4.10473877 67.07112061 4.10473877 65.08465576 4.01202393 C63.25002219 3.92734853 61.41538666 3.84271553 59.58074951 3.75811768 C58.74092529 3.71880127 57.90110107 3.67948486 57.03582764 3.63897705 C54.40511829 3.51813174 51.77416934 3.40391714 49.14312744 3.29058838 C47.60351507 3.22177592 46.06406181 3.14937271 44.52471924 3.07476807 C27.76753574 2.26387661 11.03288582 2.03707163 -5.74053955 2.06524658 C-9.18572712 2.07097747 -12.63083805 2.06752321 -16.0760231 2.06181622 C-43.37501995 1.82060462 -43.37501995 1.82060462 -70.48175049 4.63311768 C-71.30707275 4.76436035 -72.13239502 4.89560303 -72.98272705 5.03082275 C-78.99738809 5.99759141 -85.00227176 7.02989361 -90.98175049 8.19561768 C-87.54402322 4.75789041 -83.87214065 4.22433994 -79.10675049 4.07061768 C-78.07550049 4.11186768 -77.04425049 4.15311768 -75.98175049 4.19561768 C-75.98175049 3.53561768 -75.98175049 2.87561768 -75.98175049 2.19561768 C-50.66294519 -0.12295496 -25.40276315 -0.0799145 0 0 Z " fill="#188AB8" transform="translate(382.98175048828125,126.80438232421875)"/>
<path d="M0 0 C0.74886475 0.00523682 1.49772949 0.01047363 2.26928711 0.01586914 C3.07817383 0.0190918 3.88706055 0.02231445 4.72045898 0.02563477 C5.5705957 0.03401367 6.42073242 0.04239258 7.29663086 0.05102539 C8.15063477 0.05553711 9.00463867 0.06004883 9.88452148 0.06469727 C12.00108749 0.07652166 14.11761771 0.0944577 16.23413086 0.11352539 C16.89413086 1.76352539 17.55413086 3.41352539 18.23413086 5.11352539 C17.24413086 5.11352539 16.25413086 5.11352539 15.23413086 5.11352539 C15.23413086 4.45352539 15.23413086 3.79352539 15.23413086 3.11352539 C13.58413086 3.11352539 11.93413086 3.11352539 10.23413086 3.11352539 C10.23413086 4.10352539 10.23413086 5.09352539 10.23413086 6.11352539 C11.65725586 6.29915039 11.65725586 6.29915039 13.10913086 6.48852539 C16.23413086 7.11352539 16.23413086 7.11352539 18.23413086 9.11352539 C17.6785753 13.66908095 17.6785753 13.66908095 16.23413086 15.11352539 C9.7725924 15.47249975 9.7725924 15.47249975 6.23413086 13.11352539 C5.94116211 10.94946289 5.94116211 10.94946289 6.04663086 8.48852539 C6.07370117 7.67125977 6.10077148 6.85399414 6.12866211 6.01196289 C6.1634668 5.38547852 6.19827148 4.75899414 6.23413086 4.11352539 C4.25413086 4.11352539 2.27413086 4.11352539 0.23413086 4.11352539 C0.23413086 7.74352539 0.23413086 11.37352539 0.23413086 15.11352539 C-0.75586914 15.11352539 -1.74586914 15.11352539 -2.76586914 15.11352539 C-2.79272326 12.80108747 -2.81219755 10.48856269 -2.82836914 8.17602539 C-2.8399707 6.88825195 -2.85157227 5.60047852 -2.86352539 4.27368164 C-2.7368959 0.17595142 -2.7368959 0.17595142 0 0 Z " fill="#0F354A" transform="translate(253.765869140625,248.886474609375)"/>
<path d="M0 0 C0.66 0.33 1.32 0.66 2 1 C1.67 1.99 1.34 2.98 1 4 C3.97 4 6.94 4 10 4 C10.33 3.34 10.66 2.68 11 2 C13.15234375 1.62109375 13.15234375 1.62109375 15.9375 1.4375 C16.9378125 1.3653125 17.938125 1.293125 18.96875 1.21875 C19.9690625 1.1465625 20.969375 1.074375 22 1 C23.64634782 0.81707246 25.29222122 0.62980531 26.9375 0.4375 C30.72880604 0.06805964 34.50411279 -0.15222967 38.3125 -0.25 C39.27800781 -0.27578125 40.24351562 -0.3015625 41.23828125 -0.328125 C44.46851731 0.05566542 46.34845519 1.16468665 49 3 C48.56802365 7.7517398 47.67230705 9.92000054 44 13 C44.66 10.36 45.32 7.72 46 5 C44.66710937 5.0721875 43.33421875 5.144375 41.9609375 5.21875 C31.91044633 5.73548004 21.87734154 6.10479286 11.8125 6.125 C10.87519043 6.12951172 9.93788086 6.13402344 8.97216797 6.13867188 C8.10092285 6.13673828 7.22967773 6.13480469 6.33203125 6.1328125 C5.56608643 6.13168457 4.8001416 6.13055664 4.01098633 6.12939453 C2 6 2 6 -1 5 C-0.67 3.35 -0.34 1.7 0 0 Z " fill="#1D9ACC" transform="translate(289,161)"/>
<path d="M0 0 C0.74056641 0.00902344 1.48113281 0.01804688 2.24414062 0.02734375 C4.05873467 0.05075787 5.87316071 0.08662385 7.6875 0.125 C7.9140625 4.84375 7.9140625 4.84375 5.875 7.375 C2.27670708 10.25363434 -0.84250212 10.30926474 -5.3125 10.375 C-6.8903125 10.41367188 -6.8903125 10.41367188 -8.5 10.453125 C-11.3125 10.125 -11.3125 10.125 -13.1875 8.76953125 C-14.3125 7.125 -14.3125 7.125 -14.3125 4.5625 C-13.3125 2.125 -13.3125 2.125 -11.26953125 0.98046875 C-7.48489008 -0.11442744 -3.89905521 -0.09059467 0 0 Z " fill="#2A282E" transform="translate(261.3125,212.875)"/>
<path d="M0 0 C10.36323087 -0.37011539 10.36323087 -0.37011539 13.33203125 1.35546875 C15 3 15 3 15.4375 5.5 C14.91986863 8.45789355 14.35154142 9.19472373 12 11 C9.73828125 11.29296875 9.73828125 11.29296875 7.3125 11.1875 C6.10013672 11.14689453 6.10013672 11.14689453 4.86328125 11.10546875 C4.24839844 11.07066406 3.63351563 11.03585937 3 11 C3 13.64 3 16.28 3 19 C2.01 19 1.02 19 0 19 C0 12.73 0 6.46 0 0 Z " fill="#2989B1" transform="translate(142,245)"/>
<path d="M0 0 C-3.73058218 2.20482006 -7.72835705 2.92353633 -11.921875 3.76953125 C-13.52215709 4.10471427 -15.12241673 4.44000445 -16.72265625 4.77539062 C-19.21610504 5.29111757 -21.71003968 5.80432431 -24.20458984 6.31469727 C-43.88121219 10.01077201 -43.88121219 10.01077201 -62 18 C-62.66 18 -63.32 18 -64 18 C-64 17.34 -64 16.68 -64 16 C-59.63799813 13.55302334 -55.97306516 12.49730652 -51 12 C-51 11.34 -51 10.68 -51 10 C-46.20655608 8.20056837 -41.67313545 7.43184677 -36.625 6.875 C-35.88894531 6.78863281 -35.15289062 6.70226562 -34.39453125 6.61328125 C-32.59700818 6.40318115 -30.79858658 6.20079233 -29 6 C-29 5.34 -29 4.68 -29 4 C-29.99 4.33 -30.98 4.66 -32 5 C-34.94964113 5.085409 -37.87503019 5.11582927 -40.82421875 5.09765625 C-41.68561966 5.0962413 -42.54702057 5.09482635 -43.43452454 5.09336853 C-46.18555169 5.0877714 -48.93649744 5.07521946 -51.6875 5.0625 C-53.5527332 5.05748463 -55.41796767 5.05292179 -57.28320312 5.04882812 C-61.85550011 5.03780292 -66.42773625 5.02054027 -71 5 C-71 4.67 -71 4.34 -71 4 C-69.69857056 3.97812622 -69.69857056 3.97812622 -68.37084961 3.95581055 C-48.44533409 3.58558398 -28.79440984 2.50839627 -8.98730469 0.25952148 C-5.97541211 -0.00213607 -3.02159658 -0.04486682 0 0 Z " fill="#044463" transform="translate(353,143)"/>
<path d="M0 0 C3 2 3 2 3.58203125 4.53125 C3.65808594 5.5109375 3.73414063 6.490625 3.8125 7.5 C3.90144531 8.4796875 3.99039062 9.459375 4.08203125 10.46875 C4 13 4 13 2 15 C-0.09375 15.265625 -0.09375 15.265625 -2.5 15.25 C-3.2940625 15.25515625 -4.088125 15.2603125 -4.90625 15.265625 C-7 15 -7 15 -9 13 C-9.30078125 10.46875 -9.30078125 10.46875 -9.3125 7.5 C-9.32925781 6.5203125 -9.34601563 5.540625 -9.36328125 4.53125 C-9.24339844 3.6959375 -9.12351562 2.860625 -9 2 C-5.53001271 -0.31332486 -4.07490752 -0.33957563 0 0 Z " fill="#0C384F" transform="translate(494,250)"/>
<path d="M0 0 C4.29 0 8.58 0 13 0 C13.99 3.3 14.98 6.6 16 10 C17.32 7.03 18.64 4.06 20 1 C20.66 1 21.32 1 22 1 C21.36843005 6.05255964 19.86540627 10.29593201 18 15 C17.01 15 16.02 15 15 15 C14.9175 14.21625 14.835 13.4325 14.75 12.625 C14.27193661 9.85250896 14.27193661 9.85250896 11.9375 8.6875 C11.298125 8.460625 10.65875 8.23375 10 8 C10 7.01 10 6.02 10 5 C8.35 5.33 6.7 5.66 5 6 C4.67 8.97 4.34 11.94 4 15 C2.68 15 1.36 15 0 15 C0 10.05 0 5.1 0 0 Z " fill="#0D3A51" transform="translate(177,249)"/>
<path d="M0 0 C0.66 0 1.32 0 2 0 C2 6.27 2 12.54 2 19 C-7 19 -7 19 -9.0625 17.375 C-10.26348796 14.33249717 -10.40594728 12.24757827 -10 9 C-8.5 6.625 -8.5 6.625 -7 5 C-4.69 5.33 -2.38 5.66 0 6 C0 4.02 0 2.04 0 0 Z " fill="#2B8BB3" transform="translate(479,245)"/>
<path d="M0 0 C2.375 1.625 2.375 1.625 4 4 C4.48746608 7.34262452 4.31565201 9.29442492 2.9375 12.375 C1 14 1 14 -2.5 14.4375 C-6 14 -6 14 -7.9375 13 C-9.65701652 9.76326302 -9.53653931 6.57692871 -9 3 C-6.89524812 -0.74178112 -4.00297686 -0.57185384 0 0 Z " fill="#2F91B9" transform="translate(462,250)"/>
<path d="M0 0 C0.99 0.99 0.99 0.99 2 2 C0.80793945 2.3242395 0.80793945 2.3242395 -0.40820312 2.6550293 C-24.30000756 9.15349126 -24.30000756 9.15349126 -47.88671875 16.671875 C-48.7166333 16.95466309 -49.54654785 17.23745117 -50.40161133 17.52880859 C-52.01730263 18.08156608 -53.63056581 18.64148684 -55.2409668 19.20947266 C-57.14234111 19.86228137 -59.06976271 20.43824604 -61 21 C-61.66 20.67 -62.32 20.34 -63 20 C-49.25661385 14.08480633 -35.16260388 9.33477697 -20.96484375 4.65234375 C-18.00764585 3.67519731 -15.06131889 2.67804612 -12.12890625 1.62890625 C-10.54916016 1.07009766 -10.54916016 1.07009766 -8.9375 0.5 C-8.05964844 0.1803125 -7.18179688 -0.139375 -6.27734375 -0.46875 C-3.73256933 -1.0623852 -2.41541634 -0.95577765 0 0 Z " fill="#2597C4" transform="translate(172,148)"/>
<path d="M0 0 C1.875 1 1.875 1 3 3 C3.53653931 6.57692871 3.65701652 9.76326302 1.9375 13 C-1.2069442 14.62293894 -3.54085703 14.49416328 -7 14 C-9 11.9375 -9 11.9375 -10 9 C-9.875 5.3125 -9.875 5.3125 -9 2 C-5.53076119 -0.31282587 -4.07794425 -0.42478586 0 0 Z " fill="#2A8BB2" transform="translate(446,250)"/>
<path d="M0 0 C3.0625 0.5 3.0625 0.5 5.4375 2.125 C7.5378727 5.19477548 7.59543835 6.84556561 7.0625 10.5 C6 12.875 6 12.875 4.0625 14.5 C0.5625 15 0.5625 15 -2.9375 14.5 C-5.57519276 12.28774156 -5.88673246 10.90614032 -6.3125 7.5 C-5.73388245 2.8710596 -4.75255112 0.80894487 0 0 Z " fill="#2F91BA" transform="translate(239.9375,249.5)"/>
<path d="M0 0 C1.875 1 1.875 1 3 3 C3.53653931 6.57692871 3.65701652 9.76326302 1.9375 13 C-1.08999299 14.56257703 -3.66384962 14.3032864 -7 14 C-9.41486943 11.58513057 -9.2961925 10.87292211 -9.3125 7.5625 C-9.32925781 6.78003906 -9.34601563 5.99757812 -9.36328125 5.19140625 C-8.47678925 -0.15614227 -4.81976862 -0.60247108 0 0 Z " fill="#2B94BF" transform="translate(293,250)"/>
<path d="M0 0 C9.68744438 -0.0612299 19.37489659 -0.10196319 29.0625 -0.125 C29.77738209 -0.12671204 30.49226418 -0.12842407 31.22880936 -0.13018799 C54.87167878 -0.18021707 78.40858669 0.32143601 102 2 C102 2.33 102 2.66 102 3 C96.23828436 3.02494748 90.47660102 3.0429758 84.71484375 3.05493164 C82.75976004 3.05992238 80.80468 3.06671734 78.84960938 3.07543945 C76.019522 3.08773789 73.18948447 3.09328101 70.359375 3.09765625 C69.50261169 3.10281754 68.64584839 3.10797882 67.76312256 3.11329651 C62.14459074 3.11380174 56.62621052 2.74253703 51.03167725 2.23927307 C46.13424863 1.85274684 41.23862333 1.76665668 36.328125 1.68359375 C35.27969421 1.66281265 34.23126343 1.64203156 33.15106201 1.62062073 C29.85076497 1.55601325 26.55039872 1.49665991 23.25 1.4375 C20.99218077 1.39422999 18.73436816 1.35061324 16.4765625 1.30664062 C10.98444498 1.2004251 5.49226093 1.09850575 0 1 C0 0.67 0 0.34 0 0 Z " fill="#0B344A" transform="translate(342,128)"/>
<path d="M0 0 C8.40927471 -0.0236695 16.81853443 -0.04118214 25.2278347 -0.05181217 C29.1369282 -0.05692622 33.04599818 -0.06380061 36.95507812 -0.07543945 C53.19492577 -0.12229786 69.43067685 -0.08859179 85.66630936 0.32266426 C87.14843467 0.35974915 88.63063459 0.39397772 90.11289597 0.42515373 C92.1637057 0.46986618 94.21378013 0.52706716 96.26416016 0.58813477 C97.42404449 0.61915787 98.58392883 0.65018097 99.77896118 0.68214417 C103.10954537 1.01081006 105.87773175 1.8205179 109 3 C109 3.33 109 3.66 109 4 C100.43109061 4.13470488 92.00088873 3.70330895 83.4609375 3.0390625 C66.93940407 1.85003969 50.44024369 1.56816446 33.88140869 1.39910889 C30.03805093 1.35804404 26.19481755 1.30743871 22.3515625 1.2578125 C14.90112918 1.16292645 7.4506317 1.07796981 0 1 C0 0.67 0 0.34 0 0 Z " fill="#03415E" transform="translate(342,118)"/>
<path d="M0 0 C3.03969955 0.62023281 4.36252924 1.93676018 6.125 4.43359375 C7.36214895 6.90789165 7.08081362 8.14858708 6.75 10.87109375 C6.65976562 11.65355469 6.56953125 12.43601562 6.4765625 13.2421875 C6.125 15.43359375 6.125 15.43359375 5.125 18.43359375 C5.785 18.43359375 6.445 18.43359375 7.125 18.43359375 C7.125 19.09359375 7.125 19.75359375 7.125 20.43359375 C-4.52963263 20.24589103 -4.52963263 20.24589103 -9.1875 17.43359375 C-11.50745304 13.30923279 -11.7443854 10.05638343 -10.875 5.43359375 C-8.4053749 0.17221855 -5.41519234 -0.29391669 0 0 Z M-7.25 4.05859375 C-9.33976653 7.11286791 -9.32976766 8.79545244 -8.875 12.43359375 C-8.48239458 14.80313662 -8.48239458 14.80313662 -6.875 16.43359375 C-3.31293339 17.2522956 -3.31293339 17.2522956 0.125 17.43359375 C-0.535 17.10359375 -1.195 16.77359375 -1.875 16.43359375 C-1.875 15.77359375 -1.875 15.11359375 -1.875 14.43359375 C-0.225 14.76359375 1.425 15.09359375 3.125 15.43359375 C4.71852059 12.24655257 4.5079977 8.90185066 4.125 5.43359375 C3.16382095 3.30488682 3.16382095 3.30488682 1.125 2.43359375 C-2.50531776 1.89290813 -4.19714079 1.96979534 -7.25 4.05859375 Z " fill="#2C96C1" transform="translate(327.875,244.56640625)"/>
<path d="M0 0 C0 0.66 0 1.32 0 2 C1.98 2 3.96 2 6 2 C6 2.33 6 2.66 6 3 C5.31075439 3.13575439 4.62150879 3.27150879 3.91137695 3.41137695 C0.71132335 4.04294186 -2.48816819 4.67728869 -5.6875 5.3125 C-6.83331543 5.5396167 -7.97913086 5.7667334 -9.15966797 6.00073242 C-15.01111519 7.16960908 -20.82953732 8.39264578 -26.625 9.8125 C-30.89342725 10.8378442 -34.6212108 11.30549692 -39 11 C-36.58621822 7.37932733 -35.72952433 7.39463914 -31.6171875 6.46484375 C-30.53179687 6.21283203 -29.44640625 5.96082031 -28.328125 5.70117188 C-27.18859375 5.44916016 -26.0490625 5.19714844 -24.875 4.9375 C-22.64319347 4.42593696 -20.41142187 3.9142215 -18.1796875 3.40234375 C-17.11588867 3.16370605 -16.05208984 2.92506836 -14.95605469 2.67919922 C-12.43840078 2.10072935 -9.94289886 1.47467136 -7.4453125 0.81640625 C-4 0 -4 0 0 0 Z " fill="#1F99C9" transform="translate(210,138)"/>
<path d="M0 0 C1.875 1.1875 1.875 1.1875 3 3 C3.1875 5.6875 3.1875 5.6875 3 8 C0.03 8 -2.94 8 -6 8 C-5.67 8.99 -5.34 9.98 -5 11 C-2.36 10.67 0.28 10.34 3 10 C2.34 11.32 1.68 12.64 1 14 C-5.30818278 14.35706695 -5.30818278 14.35706695 -7.9375 13 C-9.65701652 9.76326302 -9.53653931 6.57692871 -9 3 C-6.89283346 -0.74607384 -4.00604938 -0.50075617 0 0 Z " fill="#2D94BD" transform="translate(212,250)"/>
<path d="M0 0 C0 0.33 0 0.66 0 1 C-6.93 2.485 -6.93 2.485 -14 4 C-6.74 4.33 0.52 4.66 8 5 C8 5.33 8 5.66 8 6 C-26.07423581 9.28384279 -26.07423581 9.28384279 -31 6 C-28.29293656 5.18305769 -25.58448604 4.37133506 -22.875 3.5625 C-21.73417969 3.21735352 -21.73417969 3.21735352 -20.5703125 2.86523438 C-13.59149953 0.78963914 -7.27378189 -0.12541003 0 0 Z " fill="#064461" transform="translate(317,131)"/>
<path d="M0 0 C6.75 -0.125 6.75 -0.125 9 1 C9.4140625 3.94140625 9.4140625 3.94140625 9.625 7.5625 C9.69976562 8.76003906 9.77453125 9.95757812 9.8515625 11.19140625 C9.90054687 12.11824219 9.94953125 13.04507812 10 14 C8.18757948 14.02687279 6.37504767 14.04633715 4.5625 14.0625 C3.55316406 14.07410156 2.54382813 14.08570313 1.50390625 14.09765625 C-1 14 -1 14 -2 13 C-2.1875 10.5625 -2.1875 10.5625 -2 8 C0.5654594 5.4345406 2.47686668 5.45953913 6 5 C6 4.34 6 3.68 6 3 C2.95613276 2.91773332 0.92824652 3.02391783 -2 4 C-1.34 2.68 -0.68 1.36 0 0 Z " fill="#2B90B9" transform="translate(358,250)"/>
<path d="M0 0 C-0.33 0.66 -0.66 1.32 -1 2 C-1.99515625 2.04898438 -2.9903125 2.09796875 -4.015625 2.1484375 C-5.42714482 2.22280033 -6.83859785 2.29843627 -8.25 2.375 C-9.02448486 2.41681396 -9.79896973 2.45862793 -10.59692383 2.50170898 C-14.49851186 2.73024899 -18.36891805 3.01450561 -22.24609375 3.51171875 C-34.16484377 5.0169355 -46.00211868 5.22074268 -58 5.25 C-58.85790131 5.25508575 -59.71580261 5.26017151 -60.59970093 5.26541138 C-63.06663326 5.27718467 -65.53306255 5.27406946 -68 5.265625 C-69.12067619 5.27156929 -69.12067619 5.27156929 -70.26399231 5.27763367 C-74.31307173 5.24148823 -76.27063026 4.86468487 -80 3 C-63.5 3 -47 3 -30 3 C-30 2.34 -30 1.68 -30 1 C-26.50014278 0.83024428 -23.00009554 0.66476277 -19.5 0.5 C-18.51773438 0.45230469 -17.53546875 0.40460938 -16.5234375 0.35546875 C-11.00800467 0.09808188 -5.52135535 -0.05258434 0 0 Z " fill="#1C9ACB" transform="translate(354,142)"/>
<path d="M0 0 C1.59303955 -0.02610352 1.59303955 -0.02610352 3.21826172 -0.05273438 C9.66795815 -0.04862694 14.97246449 0.82777362 20.9375 3.3125 C20.5625 5.25 20.5625 5.25 19.9375 7.3125 C19.2775 7.6425 18.6175 7.9725 17.9375 8.3125 C17.9375 6.9925 17.9375 5.6725 17.9375 4.3125 C11.97431244 3.00494218 6.04644288 3.18652991 -0.0234375 3.21484375 C-1.74199448 3.21696617 -1.74199448 3.21696617 -3.49526978 3.21913147 C-7.14270678 3.2247142 -10.79008165 3.23726359 -14.4375 3.25 C-16.91536369 3.25501723 -19.39322835 3.25957975 -21.87109375 3.26367188 C-27.93491691 3.27467799 -33.99870402 3.29139897 -40.0625 3.3125 C-40.0625 2.9825 -40.0625 2.6525 -40.0625 2.3125 C-26.72004344 1.07164824 -13.40471374 0.10086024 0 0 Z " fill="#1B8CB9" transform="translate(351.0625,134.6875)"/>
<path d="M0 0 C0.33 0.99 0.66 1.98 1 3 C-5.24595403 7.16396935 -13.77359025 6.13601111 -21.0625 6.0625 C-21.92810547 6.05798828 -22.79371094 6.05347656 -23.68554688 6.04882812 C-25.79039539 6.03719913 -27.89520758 6.01927073 -30 6 C-26.1961873 2.25906023 -21.74290988 2.02141955 -16.6875 1.3125 C-15.85798828 1.18294922 -15.02847656 1.05339844 -14.17382812 0.91992188 C-9.39598296 0.20720464 -4.82868725 -0.13684539 0 0 Z " fill="#21323E" transform="translate(296,119)"/>
<path d="M0 0 C5.94482112 -0.02467203 11.8896126 -0.04284663 17.83447266 -0.05493164 C19.85791543 -0.05996831 21.88135456 -0.06679789 23.90478516 -0.07543945 C26.80892843 -0.08753412 29.71302369 -0.09323488 32.6171875 -0.09765625 C33.52556366 -0.10281754 34.43393982 -0.10797882 35.36984253 -0.11329651 C36.21056305 -0.11337204 37.05128357 -0.11344757 37.91748047 -0.11352539 C39.03000687 -0.11685631 39.03000687 -0.11685631 40.16500854 -0.12025452 C42 0 42 0 44 1 C47.4119721 1.23163173 50.81714646 1.39510752 54.234375 1.51757812 C59.78604386 1.78604386 59.78604386 1.78604386 62 4 C41.32850904 3.09917815 20.66469086 2.04310379 0 1 C0 0.67 0 0.34 0 0 Z " fill="#1C9ACC" transform="translate(390,127)"/>
<path d="M0 0 C0 0.33 0 0.66 0 1 C-19.39848964 3.95078505 -38.35557924 5.73434917 -58 6 C-58 5.67 -58 5.34 -58 5 C-45.54849481 3.19721425 -33.11218993 1.73495437 -20.5625 0.8125 C-19.43287842 0.72887207 -18.30325684 0.64524414 -17.1394043 0.55908203 C-11.41085161 0.16016372 -5.74209205 -0.09070133 0 0 Z " fill="#1A92C2" transform="translate(336,120)"/>
<path d="M0 0 C0.99 0 1.98 0 3 0 C3.33 3.63 3.66 7.26 4 11 C5.32 11 6.64 11 8 11 C8.33 7.37 8.66 3.74 9 0 C9.99 0 10.98 0 12 0 C12 4.62 12 9.24 12 14 C10.39125 14.061875 8.7825 14.12375 7.125 14.1875 C5.76761719 14.23970703 5.76761719 14.23970703 4.3828125 14.29296875 C3.20332031 14.14794922 3.20332031 14.14794922 2 14 C-0.28062828 10.57905758 -0.21925007 9.31812778 -0.125 5.3125 C-0.10695312 4.31863281 -0.08890625 3.32476562 -0.0703125 2.30078125 C-0.04710937 1.54152344 -0.02390625 0.78226563 0 0 Z " fill="#2686AD" transform="translate(161,250)"/>
<path d="M0 0 C1.65 0 3.3 0 5 0 C4.67 6.6 4.34 13.2 4 20 C2.68 20 1.36 20 0 20 C0 13.4 0 6.8 0 0 Z " fill="#15394C" transform="translate(379,244)"/>
<path d="M0 0 C3 1 3 1 4.1875 3.375 C5 6 5 6 5 9 C5.66 9 6.32 9 7 9 C7.12375 8.071875 7.2475 7.14375 7.375 6.1875 C8 3 8 3 10 0 C10.66 0 11.32 0 12 0 C10.17778624 6.61242722 7.94776396 12.80520671 5 19 C3.68 19 2.36 19 1 19 C1 18.34 1 17.68 1 17 C1.99 17 2.98 17 4 17 C3.79503906 16.19175781 3.59007812 15.38351562 3.37890625 14.55078125 C3.10949219 13.48214844 2.84007812 12.41351563 2.5625 11.3125 C2.29566406 10.25675781 2.02882813 9.20101563 1.75390625 8.11328125 C1.10102068 5.4171683 0.52058807 2.7242424 0 0 Z " fill="#2A8AB2" transform="translate(396,250)"/>
<path d="M0 0 C1.134375 0.020625 2.26875 0.04125 3.4375 0.0625 C4.0975 1.3825 4.7575 2.7025 5.4375 4.0625 C4.4475 4.0625 3.4575 4.0625 2.4375 4.0625 C2.4375 3.4025 2.4375 2.7425 2.4375 2.0625 C0.7875 2.0625 -0.8625 2.0625 -2.5625 2.0625 C-2.5625 3.0525 -2.5625 4.0425 -2.5625 5.0625 C-1.61375 5.18625 -0.665 5.31 0.3125 5.4375 C3.4375 6.0625 3.4375 6.0625 5.4375 8.0625 C4.88194444 12.61805556 4.88194444 12.61805556 3.4375 14.0625 C1.10452567 14.10342937 -1.22955225 14.10491723 -3.5625 14.0625 C-4.2225 12.7425 -4.8825 11.4225 -5.5625 10.0625 C-4.5725 10.0625 -3.5825 10.0625 -2.5625 10.0625 C-2.5625 10.7225 -2.5625 11.3825 -2.5625 12.0625 C-0.5825 12.0625 1.3975 12.0625 3.4375 12.0625 C3.4375 11.0725 3.4375 10.0825 3.4375 9.0625 C2.32375 8.77375 1.21 8.485 0.0625 8.1875 C-3.5625 7.0625 -3.5625 7.0625 -5.5625 5.0625 C-4.90400312 0.71642062 -4.57278902 0.08022437 0 0 Z " fill="#2C91BA" transform="translate(266.5625,249.9375)"/>
<path d="M0 0 C0.66 0 1.32 0 2 0 C2.33 3.63 2.66 7.26 3 11 C4.32 11 5.64 11 7 11 C7.33 7.37 7.66 3.74 8 0 C8.99 0 9.98 0 11 0 C11 4.62 11 9.24 11 14 C3.28515625 14.09765625 3.28515625 14.09765625 1 14 C0 13 0 13 -0.09765625 10.05859375 C-0.08605469 8.86363281 -0.07445312 7.66867187 -0.0625 6.4375 C-0.05347656 5.23996094 -0.04445313 4.04242188 -0.03515625 2.80859375 C-0.02355469 1.88175781 -0.01195312 0.95492187 0 0 Z " fill="#2A8AB3" transform="translate(340,250)"/>
<path d="M0 0 C1.32 0 2.64 0 4 0 C4 6.6 4 13.2 4 20 C2.68 20 1.36 20 0 20 C0 13.4 0 6.8 0 0 Z " fill="#1E6F92" transform="translate(372,245)"/>
<path d="M0 0 C3 0.1875 3 0.1875 5 1.1875 C5 2.1775 5 3.1675 5 4.1875 C4.34 4.1875 3.68 4.1875 3 4.1875 C3 3.5275 3 2.8675 3 2.1875 C1.35 2.5175 -0.3 2.8475 -2 3.1875 C0.62647188 4.93848126 3.28775382 6.57481308 6 8.1875 C5.125 13.0625 5.125 13.0625 4 14.1875 C1.66702567 14.22842937 -0.66705225 14.22991723 -3 14.1875 C-3.66 12.8675 -4.32 11.5475 -5 10.1875 C-2.36 10.5175 0.28 10.8475 3 11.1875 C3 10.5275 3 9.8675 3 9.1875 C0.69 8.5275 -1.62 7.8675 -4 7.1875 C-4.625 4.8125 -4.625 4.8125 -5 2.1875 C-3 0.1875 -3 0.1875 0 0 Z " fill="#2A8BB3" transform="translate(491,249.8125)"/>
<path d="M0 0 C3 1 3 1 4.1875 3.3125 C5 6 5 6 5 10 C5.66 10 6.32 10 7 10 C7.10957031 9.36191406 7.21914062 8.72382813 7.33203125 8.06640625 C7.49058594 7.24011719 7.64914063 6.41382813 7.8125 5.5625 C7.96332031 4.73878906 8.11414063 3.91507813 8.26953125 3.06640625 C8.51058594 2.38449219 8.75164062 1.70257813 9 1 C9.99 0.67 10.98 0.34 12 0 C11.29507717 4.07629287 10.14203864 7.85581595 8.75 11.75 C8.35296875 12.89984375 7.9559375 14.0496875 7.546875 15.234375 C6 18 6 18 3.328125 18.890625 C2.17570313 18.94476563 2.17570313 18.94476563 1 19 C1 18.34 1 17.68 1 17 C1.99 17 2.98 17 4 17 C3.60600412 13.13884041 3.03252391 9.77861422 1.4375 6.25 C0 3 0 3 0 0 Z " fill="#2B8EB6" transform="translate(219,250)"/>
<path d="M0 0 C1.98 0 3.96 0 6 0 C2.99422513 2.00384991 0.15022736 3.26119742 -3.1875 4.625 C-4.27417969 5.07101563 -5.36085938 5.51703125 -6.48046875 5.9765625 C-7.31191406 6.31429687 -8.14335938 6.65203125 -9 7 C-8.38479492 6.7827124 -7.76958984 6.5654248 -7.13574219 6.34155273 C-4.3442177 5.36251845 -1.54730852 4.39987678 1.25 3.4375 C2.70212891 2.92413086 2.70212891 2.92413086 4.18359375 2.40039062 C5.11816406 2.08134766 6.05273438 1.76230469 7.015625 1.43359375 C7.87446289 1.13509521 8.73330078 0.83659668 9.61816406 0.52905273 C12.16586928 -0.03684284 13.56315454 0.14907724 16 1 C12.35985546 2.32865501 8.71203708 3.63488914 5.0625 4.9375 C4.04091797 5.31068359 3.01933594 5.68386719 1.96679688 6.06835938 C-4.10059368 8.22005379 -9.57102562 9.57765862 -16 10 C-15.67 9.34 -15.34 8.68 -15 8 C-14.34 8 -13.68 8 -13 8 C-12.67 7.01 -12.34 6.02 -12 5 C-7.9033589 2.87289789 -4.63766855 1.57839377 0 2 C0 1.34 0 0.68 0 0 Z " fill="#133447" transform="translate(120,161)"/>
<path d="M0 0 C0.33 1.65 0.66 3.3 1 5 C0.34 5 -0.32 5 -1 5 C-1 3.68 -1 2.36 -1 1 C-1.99 1.495 -1.99 1.495 -3 2 C-3.33 2.99 -3.66 3.98 -4 5 C-4.66 5 -5.32 5 -6 5 C-6 5.66 -6 6.32 -6 7 C-5.34 7 -4.68 7 -4 7 C-3.67 10.63 -3.34 14.26 -3 18 C-1.68 18.33 -0.36 18.66 1 19 C1.33 18.34 1.66 17.68 2 17 C2 17.99 2 18.98 2 20 C0.02 20 -1.96 20 -4 20 C-4.66 18.35 -5.32 16.7 -6 15 C-6.66 16.32 -7.32 17.64 -8 19 C-8.33 19 -8.66 19 -9 19 C-9.75583244 6.58755168 -9.75583244 6.58755168 -8.02734375 2.95703125 C-5.34103513 0.15571248 -3.91167542 0 0 0 Z " fill="#102D3E" transform="translate(392,245)"/>
<path d="M0 0 C3.3 0 6.6 0 10 0 C10.33 0.99 10.66 1.98 11 3 C11.99 3.33 12.98 3.66 14 4 C15.65497356 7.30994713 15.10084335 10.99123 15.0625 14.625 C15.05798828 15.42679687 15.05347656 16.22859375 15.04882812 17.0546875 C15.03703168 19.03649006 15.01909605 21.01825433 15 23 C9.72 22.67 4.44 22.34 -1 22 C-1 21.34 -1 20.68 -1 20 C0.93784265 20.14120714 2.87526955 20.28812873 4.8125 20.4375 C5.89144531 20.51871094 6.97039062 20.59992188 8.08203125 20.68359375 C11 21 11 21 14 22 C14 21.34 14 20.68 14 20 C13.34 20 12.68 20 12 20 C12.08378906 19.18015625 12.16757812 18.3603125 12.25390625 17.515625 C12.40666016 15.89914062 12.40666016 15.89914062 12.5625 14.25 C12.66691406 13.18265625 12.77132813 12.1153125 12.87890625 11.015625 C12.98652775 8.33550243 13.0506491 6.45725583 12 4 C8.98509443 2.99503148 6.95818308 2.89664697 3.8125 2.9375 C2.91144531 2.94652344 2.01039063 2.95554688 1.08203125 2.96484375 C0.05142578 2.98224609 0.05142578 2.98224609 -1 3 C-0.67 2.01 -0.34 1.02 0 0 Z " fill="#0D364C" transform="translate(321,243)"/>
<path d="M0 0 C3.96 0 7.92 0 12 0 C12 0.66 12 1.32 12 2 C8.7 2 5.4 2 2 2 C2 3.98 2 5.96 2 8 C4.97 8 7.94 8 11 8 C11 8.66 11 9.32 11 10 C8.03 10 5.06 10 2 10 C2 12.97 2 15.94 2 19 C1.34 19 0.68 19 0 19 C0 12.73 0 6.46 0 0 Z " fill="#309AC5" transform="translate(420,245)"/>
<path d="M0 0 C-0.825 0.845625 -1.65 1.69125 -2.5 2.5625 C-4.84014589 5.32453135 -5.00003886 6.00048191 -5.3125 9.875 C-5.209375 10.90625 -5.10625 11.9375 -5 13 C-5.66 13 -6.32 13 -7 13 C-7.125 5.375 -7.125 5.375 -6 2 C-8.12560437 2.30836232 -10.25047065 2.62181614 -12.375 2.9375 C-13.55835938 3.11152344 -14.74171875 3.28554687 -15.9609375 3.46484375 C-18.90702381 3.83462786 -18.90702381 3.83462786 -21 5 C-23.71760108 5.07181821 -26.40859388 5.09299506 -29.125 5.0625 C-29.87910156 5.05798828 -30.63320312 5.05347656 -31.41015625 5.04882812 C-33.27347127 5.03703499 -35.13674555 5.01909942 -37 5 C-37 4.67 -37 4.34 -37 4 C-32.52237431 3.32270451 -28.04269063 2.66009777 -23.5625 2 C-21.67241211 1.71382812 -21.67241211 1.71382812 -19.74414062 1.421875 C-13.08547616 0.44828437 -6.72922871 -0.23431482 0 0 Z " fill="#0B3A51" transform="translate(277,132)"/>
<path d="M0 0 C1.65 0 3.3 0 5 0 C5.02888146 3.31248187 5.04675799 6.62493167 5.0625 9.9375 C5.07087891 10.88302734 5.07925781 11.82855469 5.08789062 12.80273438 C5.09111328 13.70185547 5.09433594 14.60097656 5.09765625 15.52734375 C5.10289307 16.35999756 5.10812988 17.19265137 5.11352539 18.05053711 C5 20 5 20 4 21 C2.14712498 21.07226502 0.29166122 21.0838122 -1.5625 21.0625 C-2.57441406 21.05347656 -3.58632813 21.04445313 -4.62890625 21.03515625 C-5.41136719 21.02355469 -6.19382812 21.01195312 -7 21 C-6.67 20.34 -6.34 19.68 -6 19 C0.75 18.875 0.75 18.875 3 20 C3 13.73 3 7.46 3 1 C2.34 1 1.68 1 1 1 C1 2.98 1 4.96 1 7 C-1.64 7 -4.28 7 -7 7 C-7 6.34 -7 5.68 -7 5 C-5.02 5 -3.04 5 -1 5 C-0.67 3.35 -0.34 1.7 0 0 Z " fill="#0B384E" transform="translate(478,244)"/>
<path d="M0 0 C1.33332645 0.01007142 2.66666045 0.01918977 4 0.02734375 C7.20853441 0.050594 10.41666204 0.08326657 13.625 0.125 C13.625 0.455 13.625 0.785 13.625 1.125 C8.16254375 1.55471272 2.69989717 1.98188845 -2.76293945 2.40673828 C-4.62041554 2.55155241 -6.4778382 2.69705357 -8.33520508 2.84326172 C-11.00848788 3.05357618 -13.68195454 3.26140044 -16.35546875 3.46875 C-17.18273972 3.53437134 -18.01001068 3.59999268 -18.86235046 3.66760254 C-22.71052043 3.96375886 -26.51167799 4.20683559 -30.375 4.125 C-30.045 3.465 -29.715 2.805 -29.375 2.125 C-19.74205536 -0.1858294 -9.8426286 -0.13029956 0 0 Z " fill="#0B3348" transform="translate(326.375,118.875)"/>
<path d="M0 0 C0.598125 0.165 1.19625 0.33 1.8125 0.5 C4.11344336 1.1114124 4.11344336 1.1114124 7 1 C6.67 1.66 6.34 2.32 6 3 C5.95745644 4.99954746 5.95919217 7.00041636 6 9 C6 9.99 6 10.98 6 12 C5.4225 12.12375 4.845 12.2475 4.25 12.375 C1.99329952 12.8823395 1.99329952 12.8823395 0.25 14.125 C-3.29418039 15.50329237 -6.2839796 14.61933673 -10 14 C-10.33 12.68 -10.66 11.36 -11 10 C-9.515 10.99 -9.515 10.99 -8 12 C-4.45800359 12.41673207 -4.45800359 12.41673207 -1 12 C1.3151437 8.52728445 1.25453763 7.07260203 1 3 C0.67 2.01 0.34 1.02 0 0 Z " fill="#102F42" transform="translate(464,251)"/>
<path d="M0 0 C4.55555556 0.55555556 4.55555556 0.55555556 6 2 C6.1875 4.9375 6.1875 4.9375 6 8 C4 10 4 10 1.4375 10.1875 C-1 10 -1 10 -2 9 C-2.1875 5.5625 -2.1875 5.5625 -2 2 C-1.34 1.34 -0.68 0.68 0 0 Z " fill="#063D57" transform="translate(441,252)"/>
<path d="M0 0 C0.57679504 0.16265854 1.15359009 0.32531708 1.74786377 0.49290466 C3.93537497 0.9854489 5.79831319 1.1207847 8.03417969 1.11352539 C8.81468689 1.11344986 9.59519409 1.11337433 10.39935303 1.11329651 C11.23178528 1.10813522 12.06421753 1.10297394 12.921875 1.09765625 C13.78186096 1.0962413 14.64184692 1.09482635 15.52789307 1.09336853 C18.26863109 1.08778097 21.00928676 1.07523075 23.75 1.0625 C25.6106759 1.05748339 27.47135309 1.05292077 29.33203125 1.04882812 C33.88805246 1.03781561 38.44401228 1.02055951 43 1 C43 1.33 43 1.66 43 2 C41.78183594 2.06058594 40.56367188 2.12117187 39.30859375 2.18359375 C37.68488723 2.26806403 36.06118978 2.35270872 34.4375 2.4375 C33.63763672 2.47681641 32.83777344 2.51613281 32.01367188 2.55664062 C28.44419356 2.74604152 24.97685749 3.00345108 21.4375 3.53125 C17.44320074 4.07592717 13.58567535 4.11035112 9.5625 4.0625 C8.83095703 4.05798828 8.09941406 4.05347656 7.34570312 4.04882812 C5.56376581 4.03718148 3.78187137 4.01925191 2 4 C2 3.34 2 2.68 2 2 C1.34 2 0.68 2 0 2 C0 1.34 0 0.68 0 0 Z " fill="#12A5DD" transform="translate(285,137)"/>
<path d="M0 0 C4.55555556 0.55555556 4.55555556 0.55555556 6 2 C6.1875 4.9375 6.1875 4.9375 6 8 C4 10 4 10 1.375 10.125 C0.59125 10.08375 -0.1925 10.0425 -1 10 C-2.38125018 7.23749964 -2.19079306 5.05268901 -2 2 C-1.34 1.34 -0.68 0.68 0 0 Z " fill="#09374F" transform="translate(288,252)"/>
<path d="M0 0 C1.65 0 3.3 0 5 0 C5 0.66 5 1.32 5 2 C4.01 2 3.02 2 2 2 C2 2.99 2 3.98 2 5 C2.66 5 3.32 5 4 5 C4 5.66 4 6.32 4 7 C3.34 7 2.68 7 2 7 C2 10.96 2 14.92 2 19 C1.01 19 0.02 19 -1 19 C-1 15.04 -1 11.08 -1 7 C-1.66 7 -2.32 7 -3 7 C-3 6.34 -3 5.68 -3 5 C-2.34 5 -1.68 5 -1 5 C-0.67 3.35 -0.34 1.7 0 0 Z " fill="#288BB3" transform="translate(302,245)"/>
<path d="M0 0 C4.55555556 0.55555556 4.55555556 0.55555556 6 2 C6.1875 4.9375 6.1875 4.9375 6 8 C5.34 8.66 4.68 9.32 4 10 C-0.55555556 9.44444444 -0.55555556 9.44444444 -2 8 C-2.1875 5.0625 -2.1875 5.0625 -2 2 C-1.34 1.34 -0.68 0.68 0 0 Z " fill="#073C56" transform="translate(457,252)"/>
<path d="M0 0 C0.66 0.99 1.32 1.98 2 3 C-1.21451269 4.60725635 -4.43612536 4.05748185 -8 4 C-8 4.66 -8 5.32 -8 6 C-5.36 6 -2.72 6 0 6 C0 7.65 0 9.3 0 11 C-2.97 11 -5.94 11 -9 11 C-9 13.64 -9 16.28 -9 19 C-9.33 19 -9.66 19 -10 19 C-10 16.03 -10 13.06 -10 10 C-7.03 10 -4.06 10 -1 10 C-1 9.34 -1 8.68 -1 8 C-3.97 8 -6.94 8 -10 8 C-10 6.02 -10 4.04 -10 2 C-6.7 2 -3.4 2 0 2 C0 1.34 0 0.68 0 0 Z " fill="#0D3F58" transform="translate(432,245)"/>
<path d="M0 0 C2.24707241 0.2198223 4.49771238 0.40483987 6.75 0.5625 C7.92046875 0.64628906 9.0909375 0.73007813 10.296875 0.81640625 C11.18890625 0.87699219 12.0809375 0.93757812 13 1 C13 1.33 13 1.66 13 2 C9.10429463 2.43069251 5.20821658 2.85782462 1.31176758 3.28173828 C-0.66149973 3.49716153 -2.63446351 3.71535919 -4.60742188 3.93359375 C-5.85458984 4.06894531 -7.10175781 4.20429688 -8.38671875 4.34375 C-9.53358154 4.46943359 -10.68044434 4.59511719 -11.86206055 4.72460938 C-14.59842403 4.96475705 -17.25583773 5.05393931 -20 5 C-19 3 -19 3 -15.76171875 1.89453125 C-14.40595669 1.52526272 -13.04772782 1.16496315 -11.6875 0.8125 C-11.01009766 0.62236328 -10.33269531 0.43222656 -9.63476562 0.23632812 C-6.01735989 -0.72194847 -3.54583022 -1.18432156 0 0 Z " fill="#082D41" transform="translate(320,159)"/>
<path d="M0 0 C1.32 0 2.64 0 4 0 C4 0.66 4 1.32 4 2 C2.77925781 2.31453125 1.55851562 2.6290625 0.30078125 2.953125 C-16.97635723 6.90194115 -16.97635723 6.90194115 -33 14 C-33.66 14 -34.32 14 -35 14 C-35 13.34 -35 12.68 -35 12 C-30.63799813 9.55302334 -26.97306516 8.49730652 -22 8 C-22 7.34 -22 6.68 -22 6 C-17.20655608 4.20056837 -12.67313545 3.43184677 -7.625 2.875 C-6.52091797 2.74544922 -6.52091797 2.74544922 -5.39453125 2.61328125 C-3.59700818 2.40318115 -1.79858658 2.20079233 0 2 C0 1.34 0 0.68 0 0 Z " fill="#0B354B" transform="translate(324,147)"/>
<path d="M0 0 C2.5 0.125 2.5 0.125 3.5 1.125 C3.6328125 2.9375 3.6328125 2.9375 3.625 5.125 C3.62757813 5.846875 3.63015625 6.56875 3.6328125 7.3125 C3.5 9.125 3.5 9.125 2.5 10.125 C0 10.25 0 10.25 -2.5 10.125 C-3.5 9.125 -3.5 9.125 -3.6328125 7.3125 C-3.63023437 6.590625 -3.62765625 5.86875 -3.625 5.125 C-3.62757813 4.403125 -3.63015625 3.68125 -3.6328125 2.9375 C-3.42186711 0.05871588 -2.89175802 0.1445879 0 0 Z " fill="#063851" transform="translate(240.5,251.875)"/>
<path d="M0 0 C0.66 0 1.32 0 2 0 C2.02696365 1.79158489 2.04637917 3.58328473 2.0625 5.375 C2.07410156 6.37273437 2.08570313 7.37046875 2.09765625 8.3984375 C2 11 2 11 1 13 C-6.17894737 14.27368421 -6.17894737 14.27368421 -10 13 C-10.6875 10.9375 -10.6875 10.9375 -11 9 C-9.515 9.99 -9.515 9.99 -8 11 C-4.45800359 11.41673207 -4.45800359 11.41673207 -1 11 C-0.34 10.01 0.32 9.02 1 8 C0.443125 8.350625 -0.11375 8.70125 -0.6875 9.0625 C-3.53886783 10.21845993 -5.08517222 9.80967438 -8 9 C-8 8.01 -8 7.02 -8 6 C-5.03 6 -2.06 6 1 6 C0.67 4.02 0.34 2.04 0 0 Z " fill="#11384D" transform="translate(214,252)"/>
<path d="M0 0 C4.70588235 0.70588235 4.70588235 0.70588235 6 2 C6.125 5.5 6.125 5.5 6 9 C5 10 5 10 2.5 10.125 C0 10 0 10 -1 9 C-1.1328125 7.1875 -1.1328125 7.1875 -1.125 5 C-1.12757813 4.278125 -1.13015625 3.55625 -1.1328125 2.8125 C-1 1 -1 1 0 0 Z " fill="#1B2531" transform="translate(473,252)"/>
<path d="M0 0 C0.66 0 1.32 0 2 0 C2 1.32 2 2.64 2 4 C2.66 4 3.32 4 4 4 C4 4.66 4 5.32 4 6 C3.34 6 2.68 6 2 6 C2 9.3 2 12.6 2 16 C2.66 16 3.32 16 4 16 C4 16.66 4 17.32 4 18 C2.35 17.67 0.7 17.34 -1 17 C-1 13.37 -1 9.74 -1 6 C-1.66 6 -2.32 6 -3 6 C-3 5.34 -3 4.68 -3 4 C-2.34 4 -1.68 4 -1 4 C-0.67 2.68 -0.34 1.36 0 0 Z " fill="#2989B0" transform="translate(389,246)"/>
<path d="M0 0 C2.475 0.495 2.475 0.495 5 1 C5.33 2.32 5.66 3.64 6 5 C6.99 5 7.98 5 9 5 C8.67 6.98 8.34 8.96 8 11 C7.34 11 6.68 11 6 11 C5.80664062 10.36191406 5.61328125 9.72382813 5.4140625 9.06640625 C5.15367187 8.24011719 4.89328125 7.41382813 4.625 6.5625 C4.24214844 5.32693359 4.24214844 5.32693359 3.8515625 4.06640625 C3.19117773 1.82201984 3.19117773 1.82201984 1 1 C1.37253906 1.89203125 1.74507812 2.7840625 2.12890625 3.703125 C2.60199219 4.87359375 3.07507813 6.0440625 3.5625 7.25 C4.03816406 8.41015625 4.51382813 9.5703125 5.00390625 10.765625 C5.95770524 13.86266644 6.20983356 15.07321701 5 18 C4.01 18 3.02 18 2 18 C1.67 18.66 1.34 19.32 1 20 C1 19.01 1 18.02 1 17 C1.66 17 2.32 17 3 17 C2.60045258 13.60384689 2.22512852 10.55619987 0.9375 7.375 C-0.09752133 4.75294596 -0.15959779 2.79296141 0 0 Z " fill="#0C384F" transform="translate(218,249)"/>
<path d="M0 0 C1.98 0 3.96 0 6 0 C6 0.66 6 1.32 6 2 C6.66 2 7.32 2 8 2 C8 5.96 8 9.92 8 14 C8.99 14.33 9.98 14.66 11 15 C9.68 15 8.36 15 7 15 C7 11.7 7 8.4 7 5 C6.34 5 5.68 5 5 5 C4.8453125 6.918125 4.8453125 6.918125 4.6875 8.875 C4.51171875 11.0546875 4.51171875 11.0546875 4 13 C0.5647952 15.29013653 -0.985331 15.17842973 -5 15 C-5 14.67 -5 14.34 -5 14 C-4.030625 13.690625 -3.06125 13.38125 -2.0625 13.0625 C0.84065792 12.30476658 0.84065792 12.30476658 2 11 C2.46331437 5.12353969 2.46331437 5.12353969 0 0 Z " fill="#0F3347" transform="translate(293,250)"/>
<path d="M0 0 C0.99 0 1.98 0 3 0 C3.99 2.97 4.98 5.94 6 9 C7.32 6.03 8.64 3.06 10 0 C10.66 0 11.32 0 12 0 C11.36843005 5.05255964 9.86540627 9.29593201 8 14 C7.01 14 6.02 14 5 14 C4.16235732 12.04350603 3.33000941 10.08474444 2.5 8.125 C2.0359375 7.03445313 1.571875 5.94390625 1.09375 4.8203125 C0 2 0 2 0 0 Z " fill="#2D8CB4" transform="translate(187,250)"/>
<path d="M0 0 C6.15234375 -0.09765625 6.15234375 -0.09765625 8 0 C9 1 9 1 9.125 3.5 C9 6 9 6 8 7 C5.32941149 7.14115161 2.67567762 7.04247107 0 7 C0 4.69 0 2.38 0 0 Z " fill="#063E5A" transform="translate(145,247)"/>
<path d="M0 0 C2.413125 -0.0825 4.82625 -0.165 7.3125 -0.25 C8.06829346 -0.28641602 8.82408691 -0.32283203 9.6027832 -0.36035156 C12.83496868 -0.41402653 14.54583253 -0.41812243 16.96875 1.8125 C18.3055994 4.64824115 18.21103932 6.90475667 18 10 C16.35 10.66 14.7 11.32 13 12 C13.66 11.01 14.32 10.02 15 9 C15.41679297 6.45769153 15.41679297 6.45769153 15 4 C10.51581607 1.01054405 6.34658811 1.37740622 1 1 C1 7.27 1 13.54 1 20 C0.67 20 0.34 20 0 20 C0 13.4 0 6.8 0 0 Z " fill="#08364D" transform="translate(141,244)"/>
<path d="M0 0 C1.65 0.33 3.3 0.66 5 1 C5 1.66 5 2.32 5 3 C5.99 3.33 6.98 3.66 8 4 C7.67 6.64 7.34 9.28 7 12 C6.67 12 6.34 12 6 12 C6 9.69 6 7.38 6 5 C4.68 5.33 3.36 5.66 2 6 C2.33 4.35 2.66 2.7 3 1 C2.34 1 1.68 1 1 1 C0.71125 2.27875 0.4225 3.5575 0.125 4.875 C-0.54102483 7.82453855 -0.80202597 8.80202597 -3 11 C-3.53012738 9.71211992 -4.0488329 8.41953322 -4.5625 7.125 C-4.85253906 6.40570313 -5.14257812 5.68640625 -5.44140625 4.9453125 C-6 3 -6 3 -5 1 C-4.01 1.99 -3.02 2.98 -2 4 C-1.34 2.68 -0.68 1.36 0 0 Z " fill="#0D384F" transform="translate(196,249)"/>
<path d="M0 0 C1.89510699 -0.08160748 3.79124504 -0.13946459 5.6875 -0.1875 C6.74324219 -0.22230469 7.79898437 -0.25710937 8.88671875 -0.29296875 C12.35422768 0.03333385 14.18432448 1.00969875 17 3 C16.56802365 7.7517398 15.67230705 9.92000054 12 13 C12.66 10.36 13.32 7.72 14 5 C9.05 5 4.1 5 -1 5 C-1 4.67 -1 4.34 -1 4 C3.95 3.67 8.9 3.34 14 3 C9.38 2.34 4.76 1.68 0 1 C0 0.67 0 0.34 0 0 Z " fill="#2184AB" transform="translate(321,161)"/>
<path d="M0 0 C0.33 0.66 0.66 1.32 1 2 C-7.58 2 -16.16 2 -25 2 C-18.08954957 -2.60696695 -7.89571622 -1.64494088 0 0 Z " fill="#13A7DF" transform="translate(335,163)"/>
<path d="M0 0 C1.75570313 0.02707031 1.75570313 0.02707031 3.546875 0.0546875 C4.88492187 0.08949219 4.88492187 0.08949219 6.25 0.125 C5.5078125 4.875 5.5078125 4.875 3.1875 7.125 C0.97179617 8.99335961 0.97179617 8.99335961 1 11.875 C1.12375 12.98875 1.12375 12.98875 1.25 14.125 C0.26 13.795 -0.73 13.465 -1.75 13.125 C-2.0625 10.4375 -2.0625 10.4375 -1.75 7.125 C0.75 4.25 0.75 4.25 3.25 2.125 C-1.37 2.125 -5.99 2.125 -10.75 2.125 C-6.52746115 0.01373057 -4.60998477 -0.0921997 0 0 Z " fill="#1B9BCC" transform="translate(272.75,130.875)"/>
<path d="M0 0 C0.99 0.33 1.98 0.66 3 1 C2.67 3.31 2.34 5.62 2 8 C7.62006722 7.88785352 7.62006722 7.88785352 12 4.9375 C12.33 4.298125 12.66 3.65875 13 3 C13.125 5.375 13.125 5.375 13 8 C11 10 11 10 8.6171875 10.1953125 C7.71226562 10.17210937 6.80734375 10.14890625 5.875 10.125 C4.50988281 10.09792969 4.50988281 10.09792969 3.1171875 10.0703125 C2.41851562 10.04710937 1.71984375 10.02390625 1 10 C1 12.31 1 14.62 1 17 C0.67 17 0.34 17 0 17 C0 11.39 0 5.78 0 0 Z " fill="#269BC9" transform="translate(143,246)"/>
<path d="M0 0 C1.98 0 3.96 0 6 0 C5.98675075 3.10032516 5.78654195 5.99354688 5 9 C1.65449362 12.26585147 -0.21166132 12.94913944 -4.875 13.25 C-5.90625 13.1675 -6.9375 13.085 -8 13 C-8 12.67 -8 12.34 -8 12 C-6.865625 11.690625 -5.73125 11.38125 -4.5625 11.0625 C-1.21224901 10.37075469 -1.21224901 10.37075469 0 9 C0.07179964 7.48071962 0.08392007 5.95832518 0.0625 4.4375 C0.05347656 3.61121094 0.04445313 2.78492188 0.03515625 1.93359375 C0.02355469 1.29550781 0.01195312 0.65742188 0 0 Z " fill="#0D3449" transform="translate(448,252)"/>
<path d="M0 0 C2.31 0 4.62 0 7 0 C7 0.66 7 1.32 7 2 C6.01 2.33 5.02 2.66 4 3 C3.67 6.63 3.34 10.26 3 14 C2.01 14 1.02 14 0 14 C0 9.38 0 4.76 0 0 Z " fill="#267B9F" transform="translate(251,250)"/>
<path d="M0 0 C0.33 0.99 0.66 1.98 1 3 C-0.91811433 4.91811433 -4.26589291 4.17438668 -6.8125 4.1875 C-8.05644531 4.20167969 -9.30039062 4.21585937 -10.58203125 4.23046875 C-13.72523994 4.01852668 -15.38771164 3.66475807 -18 2 C-11.93184478 0.77100654 -6.20104812 -0.27560214 0 0 Z " fill="#2A3039" transform="translate(296,119)"/>
<path d="M0 0 C0.66 1.32 1.32 2.64 2 4 C5.3 4 8.6 4 12 4 C12 4.33 12 4.66 12 5 C9.03 5 6.06 5 3 5 C3.33 5.99 3.66 6.98 4 8 C6.64 7.67 9.28 7.34 12 7 C11.34 8.32 10.68 9.64 10 11 C3.69181722 11.35706695 3.69181722 11.35706695 1.0625 10 C-0.67278693 6.73357754 -0.17982715 3.65648548 0 0 Z " fill="#2787AF" transform="translate(203,253)"/>
<path d="M0 0 C0 0.33 0 0.66 0 1 C-6.93 2.485 -6.93 2.485 -14 4 C-11.69 4.33 -9.38 4.66 -7 5 C-7 5.33 -7 5.66 -7 6 C-12.61 6 -18.22 6 -24 6 C-16.24856282 0.83237522 -9.04735804 -0.15598893 0 0 Z " fill="#103144" transform="translate(317,131)"/>
<path d="M0 0 C6.75 -0.125 6.75 -0.125 9 1 C9.4140625 3.94140625 9.4140625 3.94140625 9.625 7.5625 C9.69976562 8.76003906 9.77453125 9.95757812 9.8515625 11.19140625 C9.90054687 12.11824219 9.94953125 13.04507812 10 14 C9.34 14 8.68 14 8 14 C8 13.34 8 12.68 8 12 C7.34 11.67 6.68 11.34 6 11 C6 8.36 6 5.72 6 3 C2.95613276 2.91773332 0.92824652 3.02391783 -2 4 C-1.34 2.68 -0.68 1.36 0 0 Z " fill="#2A99C6" transform="translate(358,250)"/>
<path d="M0 0 C2.375 0.25 2.375 0.25 5 1 C6.99091661 3.97319003 7.20022194 6.06143204 6.75 9.5625 C6.66234375 10.32691406 6.5746875 11.09132813 6.484375 11.87890625 C6 14 6 14 4 17 C3.01 17 2.02 17 1 17 C1 16.34 1 15.68 1 15 C1.66 15 2.32 15 3 15 C3.08142927 13.2507786 3.13938541 11.50045458 3.1875 9.75 C3.22230469 8.77546875 3.25710938 7.8009375 3.29296875 6.796875 C2.96075202 3.62531258 2.11327721 2.32959693 0 0 Z " fill="#2B93BE" transform="translate(328,246)"/>
<path d="M0 0 C0 0.33 0 0.66 0 1 C-9.30859901 3.76093265 -18.61516891 6.50683753 -28 9 C-26.07335828 5.14671656 -20.66771276 4.28617372 -16.8125 2.8125 C-15.86568359 2.43158203 -14.91886719 2.05066406 -13.94335938 1.65820312 C-5.2739495 -1.67525455 -5.2739495 -1.67525455 0 0 Z " fill="#347F9F" transform="translate(137,160)"/>
<path d="M0 0 C0.33 0.66 0.66 1.32 1 2 C2.65 2 4.3 2 6 2 C6 1.34 6 0.68 6 0 C7.65 0.33 9.3 0.66 11 1 C10.01 1.495 10.01 1.495 9 2 C9 2.66 9 3.32 9 4 C9.99 4 10.98 4 12 4 C12.33 3.34 12.66 2.68 13 2 C13 2.66 13 3.32 13 4 C13.66 4 14.32 4 15 4 C15 4.66 15 5.32 15 6 C12.91587093 5.93976506 10.83255565 5.85091679 8.75 5.75 C7.58984375 5.70359375 6.4296875 5.6571875 5.234375 5.609375 C1.53338618 4.91208725 0.32877571 3.88214816 -2 1 C-1.34 0.67 -0.68 0.34 0 0 Z " fill="#288AB2" transform="translate(320,259)"/>
<path d="M0 0 C1.9375 0.375 1.9375 0.375 4 1 C5.40457737 3.80915474 5.24895157 5.88810534 5 9 C3.5 11.375 3.5 11.375 2 13 C0.35 12.67 -1.3 12.34 -3 12 C-2.34 11.62875 -1.68 11.2575 -1 10.875 C1.31940353 9.1106309 1.31940353 9.1106309 1.3125 6 C1.10436419 2.95269824 1.10436419 2.95269824 0 0 Z " fill="#2887AF" transform="translate(461,251)"/>
<path d="M0 0 C0.99 0 1.98 0 3 0 C3 4.62 3 9.24 3 14 C2.01 14 1.02 14 0 14 C0 9.38 0 4.76 0 0 Z " fill="#2580A7" transform="translate(380,250)"/>
<path d="M0 0 C3.04190863 -0.05421223 6.08283999 -0.09377548 9.125 -0.125 C9.9809375 -0.14175781 10.836875 -0.15851563 11.71875 -0.17578125 C16.56587293 -0.21306681 20.44707905 0.10419357 25 2 C25 2.33 25 2.66 25 3 C21.04 3 17.08 3 13 3 C13 2.34 13 1.68 13 1 C8.71 1 4.42 1 0 1 C0 0.67 0 0.34 0 0 Z " fill="#113144" transform="translate(426,119)"/>
<path d="M0 0 C0.33 0 0.66 0 1 0 C1.33 2.97 1.66 5.94 2 9 C6.455 8.505 6.455 8.505 11 8 C11 8.66 11 9.32 11 10 C9.35 9.67 7.7 9.34 6 9 C6 9.66 6 10.32 6 11 C6.66 11.33 7.32 11.66 8 12 C4.625 11.75 4.625 11.75 1 11 C-1.53883972 8.01962293 -1.25211048 4.78165713 -1 1 C-0.67 0.67 -0.34 0.34 0 0 Z " fill="#083B55" transform="translate(320,250)"/>
<path d="M0 0 C2.31 0 4.62 0 7 0 C7 0.66 7 1.32 7 2 C6.35546875 2.22429687 5.7109375 2.44859375 5.046875 2.6796875 C2.75611148 3.82889456 2.75611148 3.82889456 2.390625 6.3828125 C2.34421875 7.28773438 2.2978125 8.19265625 2.25 9.125 C2.19328125 10.03507812 2.1365625 10.94515625 2.078125 11.8828125 C2.03945312 12.93082031 2.03945312 12.93082031 2 14 C1.34 14 0.68 14 0 14 C0 9.38 0 4.76 0 0 Z " fill="#2D9BC7" transform="translate(178,250)"/>
<path d="M0 0 C1.670625 0.061875 1.670625 0.061875 3.375 0.125 C4.035 1.445 4.695 2.765 5.375 4.125 C4.385 4.125 3.395 4.125 2.375 4.125 C2.375 3.465 2.375 2.805 2.375 2.125 C0.725 2.125 -0.925 2.125 -2.625 2.125 C-2.625 3.115 -2.625 4.105 -2.625 5.125 C-1.635 5.455 -0.645 5.785 0.375 6.125 C0.045 6.785 -0.285 7.445 -0.625 8.125 C-2.5625 7.375 -2.5625 7.375 -4.625 6.125 C-5.5 4.125 -5.5 4.125 -5.625 2.125 C-3.625 0.125 -3.625 0.125 0 0 Z " fill="#2B86AD" transform="translate(266.625,249.875)"/>
<path d="M0 0 C-3.45425518 1.1996042 -6.91396865 2.38260295 -10.375 3.5625 C-11.35984375 3.90474609 -12.3446875 4.24699219 -13.359375 4.59960938 C-14.77089844 5.07817383 -14.77089844 5.07817383 -16.2109375 5.56640625 C-17.08024902 5.86490479 -17.94956055 6.16340332 -18.84521484 6.47094727 C-21 7 -21 7 -23 6 C-8.0328896 -2.18660319 -8.0328896 -2.18660319 0 0 Z " fill="#0C364C" transform="translate(149,154)"/>
<path d="M0 0 C0.66 0 1.32 0 2 0 C2 5.94 2 11.88 2 18 C1.01 17.34 0.02 16.68 -1 16 C-1.328125 13.828125 -1.328125 13.828125 -1.25 11.25 C-1.22421875 10.36054688 -1.1984375 9.47109375 -1.171875 8.5546875 C-0.97675996 5.65456847 -0.59887069 2.8446358 0 0 Z " fill="#2F97C2" transform="translate(479,245)"/>
<path d="M0 0 C-5.82478551 3.03901852 -10.48208608 3.3540919 -17 3 C-17 2.34 -17 1.68 -17 1 C-14.91835982 0.63601378 -12.83459438 0.28416713 -10.75 -0.0625 C-9.00976562 -0.35833984 -9.00976562 -0.35833984 -7.234375 -0.66015625 C-4.37477376 -0.9606216 -2.66674071 -0.9439206 0 0 Z " fill="#15A6DC" transform="translate(227,137)"/>
<path d="M0 0 C-0.33 0.33 -0.66 0.66 -1 1 C-0.34 1.66 0.32 2.32 1 3 C-1.31 3.33 -3.62 3.66 -6 4 C-5.34 3.34 -4.68 2.68 -4 2 C-11.92 2.495 -11.92 2.495 -20 3 C-20 2.67 -20 2.34 -20 2 C-17.41842632 1.46867611 -14.83538244 0.94965621 -12.25 0.4375 C-11.52039063 0.28603516 -10.79078125 0.13457031 -10.0390625 -0.02148438 C-6.33442927 -0.74557178 -3.60677678 -1.09817231 0 0 Z " fill="#1F95C4" transform="translate(230,135)"/>
<path d="M0 0 C1.65 0.33 3.3 0.66 5 1 C4.125 5.875 4.125 5.875 3 7 C0.66702567 7.04092937 -1.66705225 7.04241723 -4 7 C-4.66 5.68 -5.32 4.36 -6 3 C-3.36 3.33 -0.72 3.66 2 4 C2 3.34 2 2.68 2 2 C1.34 1.34 0.68 0.68 0 0 Z " fill="#2E91BA" transform="translate(492,257)"/>
<path d="M0 0 C4.75 0.75 4.75 0.75 7 3 C7.26991906 5.68839385 7.08737357 8.29141936 7 11 C5.02 11.99 5.02 11.99 3 13 C3.33 10.03 3.66 7.06 4 4 C2.68 3.34 1.36 2.68 0 2 C0 1.34 0 0.68 0 0 Z " fill="#2F92BA" transform="translate(442,250)"/>
<path d="M0 0 C0.33 0 0.66 0 1 0 C1.33 1.98 1.66 3.96 2 6 C3.65 6 5.3 6 7 6 C7.33 4.02 7.66 2.04 8 0 C8.33 0 8.66 0 9 0 C9.625 3.375 9.625 3.375 10 7 C8 9 8 9 4.5 9.3125 C2.7675 9.1578125 2.7675 9.1578125 1 9 C-1 6 -1 6 -0.625 2.8125 C-0.41875 1.884375 -0.2125 0.95625 0 0 Z " fill="#288AB3" transform="translate(236,255)"/>
<path d="M0 0 C-3.36031132 3.86912817 -7.08555774 4.31261017 -12 5 C-14.69497906 5.13786197 -17.29882714 5.09822447 -20 5 C-20 4.67 -20 4.34 -20 4 C-19.20335937 3.80664062 -18.40671875 3.61328125 -17.5859375 3.4140625 C-10.92263 1.7831966 -10.92263 1.7831966 -4.375 -0.25 C-2 -1 -2 -1 0 0 Z " fill="#0D3B52" transform="translate(362,148)"/>
<path d="M0 0 C1.32 0 2.64 0 4 0 C4 2.31 4 4.62 4 7 C2.35 6.67 0.7 6.34 -1 6 C-1.042721 4.33388095 -1.04063832 2.66617115 -1 1 C-0.67 0.67 -0.34 0.34 0 0 Z " fill="#1D242E" transform="translate(441,254)"/>
<path d="M0 0 C2.475 0.495 2.475 0.495 5 1 C5 2.98 5 4.96 5 7 C3.35 6.67 1.7 6.34 0 6 C0 4.02 0 2.04 0 0 Z " fill="#1D252F" transform="translate(457,254)"/>
<path d="M0 0 C0.99 0.495 0.99 0.495 2 1 C2.6328125 3.72265625 2.6328125 3.72265625 3.125 7.0625 C3.29257812 8.16722656 3.46015625 9.27195312 3.6328125 10.41015625 C3.75398438 11.26480469 3.87515625 12.11945313 4 13 C2.68 13.33 1.36 13.66 0 14 C0 9.38 0 4.76 0 0 Z " fill="#0F2C3E" transform="translate(351,250)"/>
<path d="M0 0 C2.0625 0.4375 2.0625 0.4375 4 1 C4 2.98 4 4.96 4 7 C2.35 6.67 0.7 6.34 -1 6 C-1.042721 4.33388095 -1.04063832 2.66617115 -1 1 C-0.67 0.67 -0.34 0.34 0 0 Z " fill="#1D242F" transform="translate(239,254)"/>
<path d="M0 0 C4.70588235 0.70588235 4.70588235 0.70588235 6 2 C6.125 5.5 6.125 5.5 6 9 C5 10 5 10 2.5 10.125 C0 10 0 10 -1 9 C-1.1328125 7.1875 -1.1328125 7.1875 -1.125 5 C-1.12757813 4.278125 -1.13015625 3.55625 -1.1328125 2.8125 C-1 1 -1 1 0 0 Z M1 2 C-0.29633621 3.06645115 -0.29633621 3.06645115 -0.0625 5.5625 C-0.041875 6.366875 -0.02125 7.17125 0 8 C2.475 8.495 2.475 8.495 5 9 C5 7.02 5 5.04 5 3 C3.05396726 2.40929986 3.05396726 2.40929986 1 2 Z " fill="#063F5A" transform="translate(473,252)"/>
<path d="M0 0 C-5.57468542 3.61601216 -10.60567654 3.30720059 -17 3 C-14.08149788 1.05433192 -12.42377152 0.4847543 -9.0625 -0.1875 C-8.20785156 -0.36667969 -7.35320312 -0.54585937 -6.47265625 -0.73046875 C-3.98865141 -1.00123705 -2.35550498 -0.77059444 0 0 Z " fill="#0D394F" transform="translate(195,146)"/>
<path d="M0 0 C0.33 0 0.66 0 1 0 C1 3.3 1 6.6 1 10 C1.99 9.67 2.98 9.34 4 9 C4.33 6.03 4.66 3.06 5 0 C5.33 0 5.66 0 6 0 C6 3.63 6 7.26 6 11 C4.35 11.33 2.7 11.66 1 12 C0 11 0 11 -0.09765625 8.49609375 C-0.08605469 7.48675781 -0.07445312 6.47742188 -0.0625 5.4375 C-0.05347656 4.42558594 -0.04445313 3.41367188 -0.03515625 2.37109375 C-0.02355469 1.58863281 -0.01195312 0.80617187 0 0 Z " fill="#083248" transform="translate(342,250)"/>
<path d="M0 0 C-2.60895459 2.60895459 -4.98266538 3.10973264 -8.5 4.1875 C-9.6653125 4.55230469 -10.830625 4.91710937 -12.03125 5.29296875 C-15 6 -15 6 -17 5 C-11.18524285 1.72408048 -6.75479274 -0.7342166 0 0 Z " fill="#0B3B52" transform="translate(168,147)"/>
<path d="M0 0 C-2.90527612 2.90527612 -6.21099025 2.71264319 -10.125 3.125 C-10.87910156 3.21136719 -11.63320312 3.29773438 -12.41015625 3.38671875 C-14.27257127 3.59889261 -16.13618931 3.80045763 -18 4 C-18 3.34 -18 2.68 -18 2 C-11.88019467 0.59545452 -6.28260706 -0.23268915 0 0 Z " fill="#102F41" transform="translate(237,131)"/>
<path d="M0 0 C2 3.75 2 3.75 2 6 C4.31 5.34 6.62 4.68 9 4 C8.67 5.32 8.34 6.64 8 8 C4.625 8.125 4.625 8.125 1 8 C0.34 7.34 -0.32 6.68 -1 6 C-0.625 2.875 -0.625 2.875 0 0 Z " fill="#288CB4" transform="translate(285,256)"/>
<path d="M0 0 C-0.33 1.65 -0.66 3.3 -1 5 C-2.98 5 -4.96 5 -7 5 C-6.67 3.68 -6.34 2.36 -6 1 C-3.92446352 0.4465236 -2.15634036 0 0 0 Z " fill="#073C56" transform="translate(365,257)"/>
<path d="M0 0 C0.33 0 0.66 0 1 0 C1.25 7.625 1.25 7.625 -1 11 C-3.3828125 11.29296875 -3.3828125 11.29296875 -6.125 11.1875 C-7.03507813 11.16042969 -7.94515625 11.13335937 -8.8828125 11.10546875 C-9.58148438 11.07066406 -10.28015625 11.03585937 -11 11 C-11 10.01 -11 9.02 -11 8 C-10.67 8.33 -10.34 8.66 -10 9 C-6.54187831 9.33338596 -6.54187831 9.33338596 -3 9 C-0.87491756 5.81237635 -0.4979837 3.73487777 0 0 Z " fill="#0C354A" transform="translate(247,254)"/>
<path d="M0 0 C2.0625 0.4375 2.0625 0.4375 4 1 C4 2.65 4 4.3 4 6 C2.35 6 0.7 6 -1 6 C-1.042721 4.33388095 -1.04063832 2.66617115 -1 1 C-0.67 0.67 -0.34 0.34 0 0 Z " fill="#1F242E" transform="translate(288,254)"/>
<path d="M0 0 C0 0.66 0 1.32 0 2 C-3.63 2.66 -7.26 3.32 -11 4 C-11 3.67 -11 3.34 -11 3 C-12.65 2.67 -14.3 2.34 -16 2 C-16 1.67 -16 1.34 -16 1 C-13.89594609 0.83191581 -11.79175242 0.66558052 -9.6875 0.5 C-8.51574219 0.4071875 -7.34398437 0.314375 -6.13671875 0.21875 C-4.094806 0.07635011 -2.0468721 0 0 0 Z " fill="#1B2531" transform="translate(324,147)"/>
<path d="M0 0 C2.97 0 5.94 0 9 0 C7.3125 2.0625 7.3125 2.0625 5 4 C2.25 3.75 2.25 3.75 0 3 C0 2.01 0 1.02 0 0 Z " fill="#092F44" transform="translate(206,258)"/>
<path d="M0 0 C1.65 0.33 3.3 0.66 5 1 C5.33 1.99 5.66 2.98 6 4 C3.36 4 0.72 4 -2 4 C-1.34 2.68 -0.68 1.36 0 0 Z " fill="#07415D" transform="translate(207,252)"/>
<path d="M0 0 C0.94875 0.04125 1.8975 0.0825 2.875 0.125 C2.545 1.445 2.215 2.765 1.875 4.125 C1.875 3.465 1.875 2.805 1.875 2.125 C0.225 2.125 -1.425 2.125 -3.125 2.125 C-3.455 3.775 -3.785 5.425 -4.125 7.125 C-4.785 7.125 -5.445 7.125 -6.125 7.125 C-5.03177966 0.20127119 -5.03177966 0.20127119 0 0 Z " fill="#123447" transform="translate(305.125,242.875)"/>
<path d="M0 0 C0 0.99 0 1.98 0 3 C-0.66 3.61875 -1.32 4.2375 -2 4.875 C-4.27138797 6.85077297 -4.27138797 6.85077297 -4.25 9.75 C-4.1675 10.4925 -4.085 11.235 -4 12 C-4.99 11.67 -5.98 11.34 -7 11 C-7.3125 8.1875 -7.3125 8.1875 -7 5 C-4.625 3.25 -4.625 3.25 -2 2 C-1.34 1.34 -0.68 0.68 0 0 Z " fill="#14A0D6" transform="translate(278,133)"/>
<path d="M0 0 C0.93065133 2.60582371 1.14917407 3.64198224 0.0625 6.25 C-0.4634375 7.11625 -0.4634375 7.11625 -1 8 C-2.98 8 -4.96 8 -7 8 C-7 6.68 -7 5.36 -7 4 C-6.67 4.66 -6.34 5.32 -6 6 C-4.04105639 5.88693303 -4.04105639 5.88693303 -2 5 C-0.70339566 2.50965614 -0.70339566 2.50965614 0 0 Z " fill="#12384D" transform="translate(403,263)"/>
<path d="M0 0 C0.66 0.33 1.32 0.66 2 1 C1.67 1.66 1.34 2.32 1 3 C0.77532169 4.53668865 0.59203195 6.07968054 0.4375 7.625 C0.35371094 8.44226563 0.26992188 9.25953125 0.18359375 10.1015625 C0.12300781 10.72804688 0.06242187 11.35453125 0 12 C-0.66 12 -1.32 12 -2 12 C-2.05395478 10.37536158 -2.09277195 8.75021459 -2.125 7.125 C-2.14820313 6.22007812 -2.17140625 5.31515625 -2.1953125 4.3828125 C-2 2 -2 2 0 0 Z " fill="#0C354A" transform="translate(317,247)"/>
<path d="M0 0 C1.65 0 3.3 0 5 0 C5 0.66 5 1.32 5 2 C5.66 2 6.32 2 7 2 C7.33 3.32 7.66 4.64 8 6 C5.36 5.01 2.72 4.02 0 3 C0 2.01 0 1.02 0 0 Z " fill="#083952" transform="translate(264,252)"/>
<path d="M0 0 C6.75 -0.125 6.75 -0.125 9 1 C8.67 1.66 8.34 2.32 8 3 C6.906875 2.979375 5.81375 2.95875 4.6875 2.9375 C1.05615809 2.81455548 1.05615809 2.81455548 -2 4 C-1.34 2.68 -0.68 1.36 0 0 Z " fill="#2F8CB3" transform="translate(358,250)"/>
<path d="M0 0 C3 1 3 1 5 4 C5.125 7.1875 5.125 7.1875 5 10 C3.35 10.66 1.7 11.32 0 12 C0.66 11.01 1.32 10.02 2 9 C2.37198336 5.37316225 1.85274014 3.12649899 0 0 Z " fill="#113043" transform="translate(154,244)"/>
<path d="M0 0 C1.98 0 3.96 0 6 0 C6 1.32 6 2.64 6 4 C4.02 4 2.04 4 0 4 C0 2.68 0 1.36 0 0 Z " fill="#1C252F" transform="translate(146,249)"/>
<path d="M0 0 C0 0.66 0 1.32 0 2 C-0.64453125 2.23460937 -1.2890625 2.46921875 -1.953125 2.7109375 C-4.2077908 3.81161073 -4.2077908 3.81161073 -4.609375 6.1640625 C-4.65578125 6.97617187 -4.7021875 7.78828125 -4.75 8.625 C-4.80671875 9.44226563 -4.8634375 10.25953125 -4.921875 11.1015625 C-4.94765625 11.72804688 -4.9734375 12.35453125 -5 13 C-5.33 13 -5.66 13 -6 13 C-6 9.04 -6 5.08 -6 1 C-3 0 -3 0 0 0 Z " fill="#2A9BC9" transform="translate(258,250)"/>
<path d="M0 0 C1.21816406 0.03480469 1.21816406 0.03480469 2.4609375 0.0703125 C3.68683594 0.09738281 3.68683594 0.09738281 4.9375 0.125 C5.87722656 0.15980469 5.87722656 0.15980469 6.8359375 0.1953125 C4.8359375 2.1953125 4.8359375 2.1953125 1.2734375 2.6953125 C-0.428125 2.9428125 -0.428125 2.9428125 -2.1640625 3.1953125 C-2.4940625 3.8553125 -2.8240625 4.5153125 -3.1640625 5.1953125 C-3.4940625 4.2053125 -3.8240625 3.2153125 -4.1640625 2.1953125 C-2.1640625 0.1953125 -2.1640625 0.1953125 0 0 Z " fill="#2F8CB2" transform="translate(323.1640625,244.8046875)"/>
<path d="M0 0 C0.33 0.99 0.66 1.98 1 3 C-2.63 3.33 -6.26 3.66 -10 4 C-9.67 3.34 -9.34 2.68 -9 2 C-2.88888889 0 -2.88888889 0 0 0 Z " fill="#024A6D" transform="translate(310,160)"/>
<path d="M0 0 C0.33 0 0.66 0 1 0 C2.25 7.625 2.25 7.625 0 11 C-0.99 11 -1.98 11 -3 11 C-3 10.34 -3 9.68 -3 9 C-2.34 9 -1.68 9 -1 9 C-0.67 6.03 -0.34 3.06 0 0 Z " fill="#2094C3" transform="translate(332,252)"/>
<path d="M0 0 C0.99 0 1.98 0 3 0 C3.99 3.3 4.98 6.6 6 10 C4 8.25 4 8.25 2 6 C2 4.68 2 3.36 2 2 C1.34 2 0.68 2 0 2 C0 1.34 0 0.68 0 0 Z " fill="#0D354B" transform="translate(393,250)"/>
<path d="M0 0 C-0.99 1.485 -0.99 1.485 -2 3 C-4.97 2.67 -7.94 2.34 -11 2 C-11 1.67 -11 1.34 -11 1 C-7.27569643 0.30710631 -3.78916254 -0.11144596 0 0 Z " fill="#36353B" transform="translate(289,120)"/>
<path d="M0 0 C1.21236328 0.02707031 1.21236328 0.02707031 2.44921875 0.0546875 C3.37154297 0.08949219 3.37154297 0.08949219 4.3125 0.125 C2.8125 1.6875 2.8125 1.6875 0.3125 3.125 C-2.46187543 3.09323234 -4.94036467 2.62864148 -7.6875 2.125 C-4.48369983 -0.01086678 -3.66810033 -0.10632175 0 0 Z " fill="#113144" transform="translate(327.6875,155.875)"/>
<path d="M0 0 C0.33 0.66 0.66 1.32 1 2 C-0.625 4 -0.625 4 -3 6 C-6.25 6.25 -6.25 6.25 -9 6 C-6 4 -3 2 0 0 Z " fill="#0D3449" transform="translate(371,141)"/>
<path d="M0 0 C0.33 0 0.66 0 1 0 C1 1.98 1 3.96 1 6 C-1.64 6 -4.28 6 -7 6 C-7 5.34 -7 4.68 -7 4 C-5.02 4 -3.04 4 -1 4 C-0.67 2.68 -0.34 1.36 0 0 Z " fill="#093952" transform="translate(478,245)"/>
<path d="M0 0 C0.53625 0.144375 1.0725 0.28875 1.625 0.4375 C4.39915827 1.09453748 7.18525388 1.55219948 10 2 C10 2.33 10 2.66 10 3 C6.37 3 2.74 3 -1 3 C-0.67 2.01 -0.34 1.02 0 0 Z " fill="#053B55" transform="translate(311,159)"/>
<path d="M0 0 C0.33 0 0.66 0 1 0 C1.0825 0.94875 1.165 1.8975 1.25 2.875 C1.65074923 6.10461791 1.65074923 6.10461791 4.0625 7.375 C4.701875 7.58125 5.34125 7.7875 6 8 C4.35 8.33 2.7 8.66 1 9 C-1 6 -1 6 -0.625 2.8125 C-0.41875 1.884375 -0.2125 0.95625 0 0 Z " fill="#2782A7" transform="translate(236,255)"/>
<path d="M0 0 C0.99 0.33 1.98 0.66 3 1 C3.625 3.375 3.625 3.375 4 6 C3.34 6.66 2.68 7.32 2 8 C0.74335022 5.09399739 0 3.20395416 0 0 Z " fill="#3089AF" transform="translate(219,250)"/>
<path d="M0 0 C2.31 0 4.62 0 7 0 C7 0.66 7 1.32 7 2 C4.625 3.0625 4.625 3.0625 2 4 C1.34 3.67 0.68 3.34 0 3 C0 2.01 0 1.02 0 0 Z " fill="#2B8EB6" transform="translate(178,250)"/>
</svg>
